<?xml version="1.0" encoding="utf-8"?>
<!-- Generator: Adobe Illustrator 20.0.0, SVG Export Plug-In . SVG Version: 6.00 Build 0)  -->
<svg version="1.1" id="Capa_1" xmlns="http://www.w3.org/2000/svg" xmlns:xlink="http://www.w3.org/1999/xlink" x="0px" y="0px"
	 viewBox="0 0 32 32" style="enable-background:new 0 0 32 32;" xml:space="preserve">
<g>
	<path d="M27.5,8.3c-0.4,0.6-0.8,1.1-1.3,1.4c1.2,1.8,1.9,4,1.9,6.3c0,6.6-5.4,12-12,12s-12-5.4-12-12s5.4-12,12-12
		c2,0,3.9,0.5,5.6,1.4c-1,0.6-2.2,1.1-2.2,1.1l6.2,1.3l-1.2-6.2c0,0-0.6,1.4-1.3,2.4c-2.1-1.2-4.5-1.9-7-1.9c-7.8,0.1-14,6.4-14,14
		S8.4,30,16.1,30S30,23.8,30,16.1C29.9,13.2,29,10.5,27.5,8.3z"/>
	<rect x="15.6" y="5.2" width="0.8" height="2.5"/>
	<rect x="15.6" y="24.4" width="0.8" height="2.5"/>
	<rect x="24.4" y="15.6" width="2.5" height="0.8"/>
	<rect x="5.2" y="15.6" width="2.5" height="0.8"/>
	<polygon points="16.5,10.5 15.8,10.5 15.8,16.6 12.2,19 12.6,19.6 16.5,17 16.5,16.9 16.5,16.9 	"/>
</g>
</svg>
