<?xml version="1.0" encoding="utf-8"?>
<!-- Generator: Adobe Illustrator 20.0.0, SVG Export Plug-In . SVG Version: 6.00 Build 0)  -->
<svg version="1.1" id="Capa_1" xmlns="http://www.w3.org/2000/svg" xmlns:xlink="http://www.w3.org/1999/xlink" x="0px" y="0px"
	 viewBox="0 0 32 32" style="enable-background:new 0 0 32 32;" xml:space="preserve">
<g>
	<g>
		<path d="M13.4,18.2c-0.3,0-0.5-0.1-0.8-0.3L2.3,9C1.9,8.6,2,8.2,2,8c0-0.1,0.2-0.5,0.8-0.5H24c0.6,0,0.8,0.4,0.8,0.5
			c0,0.1,0.2,0.5-0.3,0.9l-10.3,9C14,18.1,13.7,18.2,13.4,18.2z M4.2,8.8l9.3,8l9.3-8C22.8,8.8,4.2,8.8,4.2,8.8z"/>
		<g>
			<rect x="12.8" y="17.6" width="1.3" height="11.6"/>
		</g>
		<g>
			<path d="M18.4,29.4c0,0.2-0.2,0.4-0.4,0.4H9c-0.2,0-0.4-0.2-0.4-0.4V29c0-0.2,0.2-0.4,0.4-0.4h9c0.2,0,0.4,0.2,0.4,0.4V29.4z"/>
		</g>
	</g>
	<g>
		<path d="M17.2,6c-0.1,0.2,0,0.4,0.3,0.4H18c0.2,0,0.5-0.2,0.6-0.4c0.9-1.6,2.7-2.8,4.7-2.8c3,0,5.4,2.4,5.4,5.4S26.3,14,23.3,14
			c-0.7,0-1.4-0.1-2-0.4c-0.2-0.1-0.5,0-0.7,0.1L20.2,14c-0.2,0.2-0.2,0.4,0.1,0.5c0.9,0.5,1.9,0.7,3,0.7c3.7,0,6.7-3,6.7-6.7
			C30,5,27,2,23.3,2C20.6,2,18.2,3.7,17.2,6z"/>
	</g>
</g>
</svg>
