<?xml version="1.0" encoding="utf-8"?>
<!-- Generator: Adobe Illustrator 20.0.0, SVG Export Plug-In . SVG Version: 6.00 Build 0)  -->
<svg version="1.1" xmlns="http://www.w3.org/2000/svg" xmlns:xlink="http://www.w3.org/1999/xlink" x="0px" y="0px"
	 viewBox="0 0 1000 1000" style="enable-background:new 0 0 1000 1000;" xml:space="preserve">
<style type="text/css">
	.st0{display:none;}
	.st1{display:inline;stroke:#FFFFFF;stroke-miterlimit:10;}
</style>
<g id="Capa_2" class="st0">
	<rect x="-160.1" y="-140.3" class="st1" width="1301.5" height="1376"/>
</g>
<g id="Capa_1">
	<g>
		<g>
			<path d="M431.9,371.5h-318V203.2c0-13.9,7.5-24.7,17-24.7h283.9c9.6,0,17.1,10.8,17.1,24.7V371.5z M125.9,359.5h294V203.2
				c0-7.9-3.5-12.7-5.1-12.7H130.9c-1.2,0-5,4.5-5,12.7V359.5z"/>
		</g>
		<g>
			<path d="M475.7,772H75.9C65,772,52,752.5,52,740.3V609.8c0-7.7,4.1-16.8,23.9-16.8h399.8c2.6,0,5.9,0,8.4,2.5
				c2.4,2.5,2.3,5.5,2.1,9c-0.1,1.4-0.2,3.1-0.2,5.3v130.5c0,1.8,0.1,3.7,0.1,5.8c0.3,10,0.5,18.6-3.9,23.1
				C480.5,771,478.2,772,475.7,772z M76.3,760C76.3,760,76.3,760,76.3,760L76.3,760z M76.2,760h397.6c0.7-3,0.5-9.7,0.3-13.5
				c-0.1-2.1-0.1-4.2-0.1-6.2V609.8c0-1.9,0.1-3.5,0.1-4.8H75.9C64,605,64,608.1,64,609.8v130.5C64,747.5,72.7,758.8,76.2,760z"/>
		</g>
		<g>
			<path d="M56.8,606.6l58.3-247.1h315.6L483.1,605L56.8,606.6z M124.6,371.5L72,594.6l396.3-1.5L421,371.5H124.6z"/>
		</g>
		<g>
			<rect x="103.4" y="759.4" width="16.5" height="56.1"/>
		</g>
		<g>
			<rect x="425.9" y="759.4" width="16.5" height="56.1"/>
		</g>
		<g>
			<rect x="103.4" y="422.9" width="339" height="14"/>
		</g>
		<g>
			<path d="M891,379H574V203.2c0-6.9,3.6-12.3,10.3-15c3.6-1.5,8-2.2,13.4-2.2h283.9c2.4,0,5.7,0,8.1,2.6c2.3,2.6,2,5.6,1.7,8.3
				c-0.2,1.6-0.4,3.5-0.4,6.3V379z M586,367h293V203.2c0-2.1,0.1-3.8,0.2-5.2H597.7c-11.7,0-11.7,3.8-11.7,5.2V367z"/>
		</g>
		<g>
			<path d="M937.5,772H537.7c-10.8,0-23.7-19.5-23.7-31.7V609.8c0-7.7,4.1-16.8,23.7-16.8h399.8c2.7,0,6,0,8.4,2.5
				c2.5,2.5,2.3,5.7,2.2,9.3c-0.1,1.3-0.1,3-0.1,5v130.5c0,1.7,0,3.5,0.1,5.4c0.2,9.7,0.5,18.9-4.1,23.6
				C942.3,771,940,772,937.5,772z M538,760h397.7c0.7-3.1,0.6-10.1,0.5-14c0-2-0.1-3.9-0.1-5.7V609.8c0-1.9,0.1-3.5,0.1-4.8H537.7
				c-11.7,0-11.7,3.1-11.7,4.8v130.5C526,747.6,534.5,758.8,538,760z"/>
		</g>
		<g>
			<path d="M937.9,605H520.6l54.6-238h313.4L937.9,605z M535.6,593h387.5l-44.4-214h-294L535.6,593z"/>
		</g>
		<g>
			<rect x="561.1" y="759.4" width="16.5" height="56.1"/>
		</g>
		<g>
			<rect x="883.6" y="759.4" width="16.5" height="56.1"/>
		</g>
		<g>
			<rect x="561.1" y="422.9" width="339" height="14"/>
		</g>
	</g>
</g>
</svg>
