<?xml version="1.0" encoding="utf-8"?>
<!-- Generator: Adobe Illustrator 20.0.0, SVG Export Plug-In . SVG Version: 6.00 Build 0)  -->
<svg version="1.1" id="Capa_1" xmlns="http://www.w3.org/2000/svg" xmlns:xlink="http://www.w3.org/1999/xlink" x="0px" y="0px"
	 viewBox="0 0 1000 1000" style="enable-background:new 0 0 1000 1000;" xml:space="preserve">
<g>
	<g>
		<g>
			<path d="M805,353H194V157.5c0-14.6,14.1-24.5,28.6-24.5h558c14.5,0,24.4,9.7,24.4,24.5V353z M204,343h591V157.5
				c0-9.4-5.4-14.5-14.4-14.5h-558c-9.1,0-18.6,5.3-18.6,14.5V343z"/>
			<path d="M810,358H189V157.5c0-8.4,3.8-16.1,10.7-21.7c6.2-5,14.5-7.9,22.8-7.9h558c17.3,0,29.4,12.1,29.4,29.5V358z M199,348h601
				V157.5V348H199z M209,338h581V157.5c0-6.5-3-9.5-9.4-9.5h-558c-5.6,0-13.6,3-13.6,9.5V338z"/>
		</g>
	</g>
	<g>
		<g>
			<path d="M919,781.4c0,14.7-11.9,26.6-26.6,26.6H106.6C91.9,808,80,796.1,80,781.4V630.6c0-14.7,11.9-26.6,26.6-26.6h785.9
				c14.7,0,26.6,11.9,26.6,26.6V781.4z M909,630.8c0-9.3-7.5-16.8-16.8-16.8H106.8c-9.3,0-16.8,7.5-16.8,16.8v151.4
				c0,9.3,7.5,16.8,16.8,16.8h785.4c9.3,0,16.8-7.5,16.8-16.8V630.8z"/>
			<path d="M892.4,813H106.6C89.2,813,75,798.8,75,781.4V630.6c0-17.4,14.2-31.6,31.6-31.6h785.9c17.4,0,31.6,14.2,31.6,31.6v150.9
				C924,798.8,909.8,813,892.4,813z M106.8,619c-6.5,0-11.8,5.3-11.8,11.8v151.4c0,6.5,5.3,11.8,11.8,11.8h785.4
				c6.5,0,11.8-5.3,11.8-11.8V630.8c0-6.5-5.3-11.8-11.8-11.8H106.8z M892.2,609c12,0,21.8,9.8,21.8,21.8v150.7V630.6
				c0-11.9-9.7-21.6-21.6-21.6H892.2z M106.6,609c-11.9,0-21.6,9.7-21.6,21.6v0.2c0-12,9.8-21.8,21.8-21.8H106.6z"/>
		</g>
	</g>
	<g>
		<g>
			<path d="M901.3,616H96.3l101.2-271h608.2L901.3,616z M110.4,606h777l-88.6-251H204.3L110.4,606z"/>
			<path d="M908.3,621H89.1L194,340h615.2L908.3,621z M103.5,611h790.7H103.5z M117.6,601h762.7l-85.1-241H207.8L117.6,601z"/>
		</g>
	</g>
	<g>
		<g>
			<rect x="168.9" y="802.1" width="32.5" height="65"/>
			<path d="M206.4,872.1h-42.5v-75h42.5V872.1z M173.9,862.1h22.5v-55h-22.5V862.1z"/>
		</g>
	</g>
	<g>
		<g>
			<rect x="802.8" y="802.1" width="32.5" height="65"/>
			<path d="M840.3,872.1h-42.5v-75h42.5V872.1z M807.8,862.1h22.5v-55h-22.5V862.1z"/>
		</g>
	</g>
	<g>
		<g>
			<polygon points="835.3,428.3 168.9,428.3 175.1,412 829.7,412 			"/>
			<path d="M842.3,433.3H161.7l9.9-26.3h661.7L842.3,433.3z M176.1,423.3h652.1l-2.1-6.3H178.5L176.1,423.3z"/>
		</g>
	</g>
</g>
</svg>
