<?xml version="1.0" encoding="utf-8"?>
<!-- Generator: Adobe Illustrator 20.0.0, SVG Export Plug-In . SVG Version: 6.00 Build 0)  -->
<svg version="1.1" id="Capa_1" xmlns="http://www.w3.org/2000/svg" xmlns:xlink="http://www.w3.org/1999/xlink" x="0px" y="0px"
	 viewBox="0 0 32 32" style="enable-background:new 0 0 32 32;" xml:space="preserve">
<g>
	<path d="M30.1,22.4c0,0.2-0.2,0.4-0.4,0.4H2.5c-0.2,0-0.4-0.2-0.4-0.4V22c0-0.2,0.2-0.4,0.4-0.4h27.1c0.2,0,0.4,0.2,0.4,0.4v0.4
		H30.1z"/>
	<path d="M16.1,10.8c-3,0-5.7,0.9-8,2.4c-2.4,1.6-4.3,3.8-5.4,6.5v0.1c0,0,0,0.1,0.1,0.1L2.9,20H3h26.3c0.1,0,0.1,0,0.1,0l0.1-0.1
		c0,0,0-0.1,0.1-0.1v-0.1c-1.1-2.6-3-4.9-5.4-6.5S19,10.8,16.1,10.8L16.1,10.8z"/>
	<g>
		<path d="M17.9,10.2h-0.4c-0.2,0-2.5,0-2.8,0h-0.4c-0.2,0-0.5-0.2-0.4-0.4c0.1-1,1-1.8,2-1.8h0.3c1,0,1.9,0.7,2.1,1.7
			C18.4,10,18.2,10.2,17.9,10.2z"/>
	</g>
</g>
</svg>
