<?xml version="1.0" encoding="utf-8"?>
<!-- Generator: Adobe Illustrator 20.0.0, SVG Export Plug-In . SVG Version: 6.00 Build 0)  -->
<svg version="1.1" id="Capa_1" xmlns="http://www.w3.org/2000/svg" xmlns:xlink="http://www.w3.org/1999/xlink" x="0px" y="0px"
	 viewBox="0 0 1000 1000" style="enable-background:new 0 0 1000 1000;" xml:space="preserve">
<g>
	<polygon points="933,560.2 933,655.2 644.5,655.2 644.5,655 67,655 67,643 640,643 640,571 170,571 170,560 652,560 652,560.2 	"/>
	<rect x="67" y="560" width="12" height="76"/>
	<rect x="86" y="560" width="12" height="76"/>
	<rect x="107" y="560" width="12" height="76"/>
	<rect x="128" y="560" width="12" height="76"/>
	<rect x="149.9" y="560" width="11.1" height="76"/>
	<path d="M117.2,440.3c4.2,8.3,6.1,17,6.1,25.6c0,10.4-2.9,20.7-8.3,29.6s-13.2,16.4-23.2,21.5l6.2,12.3
		c12.4-6.2,22.2-15.6,28.8-26.6c6.7-11,10.2-23.7,10.2-36.7c0-10.7-2.4-21.6-7.6-31.8L117.2,440.3L117.2,440.3z"/>
	<path d="M129.1,433.8c-4.2-8.3-6.1-17-6.1-25.6c0-10.4,2.9-20.7,8.3-29.6s13.2-16.4,23.2-21.5l-6.2-12.3
		c-12.4,6.2-22.2,15.6-28.8,26.6c-6.7,11-10.2,23.7-10.2,36.7c0,10.7,2.4,21.6,7.6,31.8L129.1,433.8L129.1,433.8z"/>
</g>
</svg>
