<svg xmlns="http://www.w3.org/2000/svg" viewBox="0 0 937.48 761.75"><title>Recurso 3</title><g id="Capa_2" data-name="Capa 2"><g id="Capa_1-2" data-name="Capa 1"><path d="M235.3,281.31c-.26-39,.45-75.14,19.58-108.47C285.51,119.45,330.46,90.16,391.7,87c12.75-.66,21.52-4.74,30.39-13.51C522.73-26,653.16-24.37,752.93,77.82c6.73,6.89,13.07,8.68,21.7,8.87,66.28,1.5,114.5,33.78,143.67,91.5,28.75,56.9,25.19,114.5-10.81,168-9.73,14.46-10.87,24.35-1.15,39.66,43.47,68.4,39,164.85-8.95,230.65-50.54,69.37-133.25,100.32-216,78.79-17.54-4.57-28.73-1.64-42.59,9.63C544.69,781.5,389.39,780.51,295.78,703c-12.4-10.27-22.77-12.19-38.33-8.19C139,725.24,27.53,654.19,3.71,529.14c-22.08-115.9,56.93-225.49,168.44-243.39C192,282.56,211.82,283,235.3,281.31ZM648.93,619.57c6-1,11.69,2.42,17.79,5.4,18.3,9,36.72,16.14,57.37,16.59,62.05,1.34,108.55-27,136-80.53,28.5-55.54,22.74-111.93-16-161.87-36.85-47.45-88-61.74-145-50.35-20.11,4-28.37-1.85-37.82-16.78-32-50.52-76.62-85.34-134.79-100.26C428.14,206.54,332.68,245,275.6,332.24c-9.74,14.89-17.94,21.15-37.93,16.31-63-15.24-121.54,10.59-154.95,64.47-31.6,51-29.51,119.55,5.1,167.07,36.36,49.94,95.7,72.17,153.89,56.18,15-4.13,19-7.54,33.22-13.71,1.41-.62,7-4,12-3,7,1,11.92,6.87,13,8,8.24,8.65,9.35,9.31,18.07,16.55,99.72,82.9,226.79,75.62,319.93-17.55C641.13,623.36,641.93,621.57,648.93,619.57ZM308.47,209c7,3.15,10.48-3.28,15-6,47-27.82,98.5-42.31,152.25-40.13,75.54,3.07,142.66,30.49,195.55,86.56,19.13,20.28,32.63,35.1,69.1,33.85a79.33,79.33,0,0,1,9.74.51c37,3.57,70.19,17.82,100.51,37.83,30.89-38.58,34.47-82.08,11.49-122.63-19.83-35-62.29-59.53-100.53-51-23.69,5.26-33.82-3-46.34-19.71-68.82-91.69-199.56-88.58-264.53,6.3-10.11,14.77-19.37,19.93-36.81,14.08C379.6,137.14,316.2,166.5,308.47,209Z"/></g></g></svg>