<svg xmlns="http://www.w3.org/2000/svg" viewBox="0 0 935.6 936.43"><title>Recurso 2</title><g id="Capa_2" data-name="Capa 2"><g id="Capa_1-2" data-name="Capa 1"><path d="M195.79,469C170.08,412.63,169.23,359,189.58,304,238.44,172,416.44,131.7,518,229.3c37.14,35.68,58.81,78,65.91,128,1.86,13.13,6.14,20.78,18,26.61,36.39,17.83,66.84,43.47,92.22,75,5,6.19,8.94,10.55,18.13,9.92,90.11-6.18,170,39.2,203.12,114.81,38.29,87.4,21.72,176.29-46.7,239.7-54.37,50.38-119.53,62.55-190.28,46.23-13.51-3.12-22.81-2.36-34.24,5.4-120.6,81.84-232.72,81.93-352.26.58-10.93-7.44-20.06-9.73-34.08-6.23-98.64,24.61-195.93-18.13-240-113.45-39.74-85.89-11.1-194.54,66.93-248.91a229.62,229.62,0,0,1,52.74-27.84C155.32,472.58,173.82,469.25,195.79,469ZM728.66,815.49C782.3,818.34,821,795.13,850,755c34.53-47.92,34.67-113.12,2.38-161.8-35.22-53.1-94.14-76.89-158.32-61.5-15.2,3.64-21.29.78-29.62-12-96.07-147.07-297.07-146.53-394,.94-7.64,11.63-13.49,15.95-27.79,11.59a129.37,129.37,0,0,0-63.7-3.14c-78.85,15.27-133.06,92-118,170.18,15.56,80.63,98.75,137.66,176.35,112.57,39.41-12.75,62-7.86,94.77,17.33,94.62,72.85,212,61.28,299.06-22.62,10.55-10.17,18.61-13,32.42-5.66C684.27,811.81,706.84,818.25,728.66,815.49ZM518.75,354.42c1.13-46.89-42.88-96.07-91.82-112.81-55.06-18.83-124.4.68-158.53,43.68-38.17,48.09-44.77,111.66-15.56,158.5C326.31,371.14,413.66,338.41,518.75,354.42Z"/><path d="M204.12,171.55c-1,23.89-28.2,39.62-45.6,26.73A253.61,253.61,0,0,1,106,145.42c-9-12.15-4-24.1,5.44-33.63s21.07-15.34,33.45-6.34c20.91,15.19,38.61,34,54.63,54.19C202.4,163.31,203.08,168.73,204.12,171.55Z"/><path d="M658.38,131c-2.58,8.17-3.43,16.57-9.82,22.84-13.64,13.37-26.78,27.26-40.68,40.36s-28.42,12.62-41.69-.83c-12.34-12.51-13.47-26.66-1.26-39.79,14.13-15.19,28.83-29.92,44.12-43.93,8.16-7.48,18-11.36,29.64-5.22C649.88,110.29,656.38,118.9,658.38,131Z"/><path d="M701,409.78c-9.94,0-20,.94-29.81-.21-17.12-2-28.23-13.77-28.29-29.54s11-28.32,28.12-29.51a400.17,400.17,0,0,1,59.61.12c15.89,1.28,29.31,9.1,29.19,27.69-.12,18.41-10.95,29.1-29,31.17-9.81,1.12-19.86.2-29.81.2Z"/><path d="M350.64,57.6c0-10-1.39-20.23.31-29.92C353.76,11.72,361.81-.1,380.63,0,398.28.1,407.43,11.51,409,26.14A322.82,322.82,0,0,1,409.22,91c-1.49,15.58-12.73,24.69-29.54,24.39S353.16,105.78,350.79,90c-1.59-10.59-.3-21.61-.3-32.43Z"/><path d="M57.59,409.52c-10,0-20.25,1.46-29.91-.33C11.81,406.25,0,398.14.19,379.3c.23-17.62,11.62-26.67,26.32-28.18A327.83,327.83,0,0,1,91.34,351c15.61,1.51,24.56,12.89,24.2,29.67S105.73,407,90,409.39c-10.59,1.59-21.6.3-32.43.3Z"/></g></g></svg>