<svg xmlns="http://www.w3.org/2000/svg" viewBox="0 0 584.75 410.46"><title>Recurso 4</title><g id="Capa_2" data-name="Capa 2"><g id="Capa_1-2" data-name="Capa 1"><path d="M37.08,175.27c-28.72,0-37.61-7.21-37-30.44.68-24.86,18.37-29.16,38-29.21,93.21-.25,426.11,0,499.35-.22,13.67,0,27.07.58,36.71,11.52,7,8,14.05,16.57,8.29,28.93s-13.61,19.72-28.5,19.61C491.5,175,121.14,175.34,37.08,175.27Z"/><path d="M41.09,59.75C11,59.74-.32,51.26,0,29.2S9.8,0,39.44,0Q290.67,0,541.89,0c28.28,0,41.22,8.89,42.09,28.26.76,17-18.73,31.42-42.93,31.43C456.89,59.79,123.59,59.78,41.09,59.75Z"/><path d="M542.33,235c27.15,0,42.89,10.72,42.42,28.24s-19.34,31.44-44.13,31.45q-251,.19-502.06,0c-19.59,0-37.37-4-38.44-28.77C-.85,243.26,9.27,235,37.77,235,121.86,234.84,458.23,234.86,542.33,235Z"/><path d="M37.11,410.36C16.32,410.46.55,406.09,0,381.28c-.42-19.39,12-30.64,36.63-30.68q253.4-.38,506.81,0c23,0,42.79,15.69,40.23,31.87-3.49,22.05-18.72,28.16-39.76,28C459,409.84,121.16,410,37.11,410.36Z"/></g></g></svg>