<svg xmlns="http://www.w3.org/2000/svg" viewBox="0 0 786.99 730.08"><title>Recurso 9</title><g id="Capa_2" data-name="Capa 2"><g id="Capa_1-2" data-name="Capa 1"><path d="M316.57,326.26c5.86,12.4,10.49,21.1,14.11,30.2,3.33,8.37,3.31,17.2-6.16,21.48-8.87,4-18.13,3.51-24.56-5.45-6.17-8.6-8.23-20.28-19.38-25.56-10.73,6.4-11.45,19.91-19.93,27.92-6.4,6-12.49,11.71-21.61,5.38-8.47-5.87-12.42-13.3-7-23.43,4.71-8.81,8.47-18.31,14.31-26.3,10.73-14.67,14.44-27.73,4.33-45.58-10.57-18.66-24.76-22-43.4-20.28-19.32,1.74-38.58,31.7-30.31,49.22,6,12.75,13.74,24.7,20.77,37,6,10.44,7.94,21.07-3.19,28.83-12.19,8.51-20-.26-26.51-9.41-5.68-7.93-10.8-16.26-17.87-27-7.63,11.68-13.12,20.81-19.35,29.4-6.41,8.84-15.91,10-24.31,4.66-7.43-4.71-10.18-13-5.8-22,4.67-9.52,9.52-19,14.59-29-13.75-1.64-26.14-2.36-38.16-4.84-7.48-1.55-13.55-6.53-13.93-15.53-.43-10.19,6-14.83,14.42-17.89,12.15-4.43,24.77-2.09,37.17-2.31,23.75-.42,43.1-13.25,45.06-35.9A39.31,39.31,0,0,0,136,210.62c-22.11-9.14-42.85.42-53.84,20.28-5.23,9.46-10.72,18.83-16.82,27.73-5.43,7.92-12.43,14.65-22.84,7.95-9.8-6.31-11.47-15.2-7.13-26.15,3.91-9.85,14.28-16.66,13.47-31.08-10.78,0-21.44.47-32-.13-11.17-.63-16.4-9-16.74-18.49S7.48,176.63,16.44,175c11.12-2,23,2.71,35.24-4-5.21-9.83-10.27-19.08-15.06-28.46-5-9.74-7.13-20.14,4.7-25.75,11.13-5.28,20.88-1.86,27,10.07,4.15,8.13,11,15.16,13.8,23.63,8.63,26.61,29.54,26,50.73,23.89,15.36-1.51,30.4-34.23,24.48-48.52-9.61-23.18-23.76-35.06-51-31.84C91,95.85,64.89,102.85,64.83,77c-.05-23.68,24.64-15.13,40-17,3.11-.37,6.19-1,9.48-1.47,0-11.64-7-19.43-11.47-28.07-5.57-10.8-3.93-19.11,5.95-25.8,10.57-7.15,17.43-.22,23,7.26,6.29,8.41,11.42,17.69,17.18,26.8,11.37-7.43,12.24-19.76,19.77-27.54C175.92,3.87,182.76-4.49,194,4c9.39,7.06,11.16,16.08,4.74,26.28-2.21,3.52-4,7.37-6.69,10.52-22.35,26.38-22.5,51.77,5.69,77.17,3.87-.53,10.23-2,16.62-2.13,11.38-.23,23.61,7.71,31.14-10,7.26-17,18.08-31.88,3.11-50.23-6.75-8.27-11-18.59-16.5-27.87-5.73-9.57-4-17.73,4.94-23.83C247.25-3,255.88-.6,262.44,9.72c5.78,9.1,11.62,18.16,17.73,27.71,9.73-5.1,12.52-15.26,17.92-23.1,7.65-11.1,17.64-13.19,28-6.8,9.6,5.93,7.53,15.67,2.7,24.42-4.35,7.88-8.93,15.62-16.17,28.22,14.67,0,25.72,0,36.78,0,12.3,0,18.65,5.95,18.39,18.33C367.53,90,360.8,94.7,350,94.76s-21.79,1.07-32.47-.19c-19.37-2.29-31.35,5.13-39.05,23.06-6.89,16,.45,49.07,14.19,55.86,17.07,8.45,45.8-1.1,55.19-18.12,5.62-10.18,11.07-20.52,17.64-30.08,6.13-8.92,15.17-14.58,25.63-7.8s7.65,17,4.06,26.92c-3.1,8.53-11.56,14.44-11.79,24.87,7.48,9.72,18.29,4.4,27.53,5.27,10.6,1,21.18,1.87,21.08,15.53-.1,13.11-8.75,19-21.3,19.39-8.19.23-16.39,0-25.17,0-2.51,14.06,6.89,21.78,10.19,31.49,3.42,10,5.16,20.52-5.8,26.47s-18.93-.91-25-9.8c-1.88-2.73-3.24-5.82-4.85-8.73-30.5-55.31-54.88-56.58-91.48-3.93,3.79,6.75,8.82,13.51,11.6,21.1,5.76,15.74,16,21.46,32.62,19.85a152.79,152.79,0,0,1,37.28,1.38c9.12,1.38,17.71,6.09,17.61,17.78s-8.74,15.82-17.81,17.79C340.3,325,330.3,325,316.57,326.26ZM253.3,189.52c-.31-22.34-18.13-39.75-39.47-38.57-21.93,1.22-36.83,18.56-36.33,42.31.43,20.32,17.42,36.49,38.75,36.88S253.62,213,253.3,189.52Z"/><path d="M747.91,467.82c3.33,7.07,4.91,12.85,8.31,17.2,8.46,10.83,8.07,20.52-4,27-13.12,7.05-17.08-4.68-22.14-13.12-3.42-5.71-8-10.94-10.3-17.06-9-24.43-29.72-19.38-46.23-15.61-13.18,3-21.56,19.55-17.87,31.6,5,16.34,12.5,35.77,37.45,32.25,8.17-1.15,16.65.1,25-.2,9.8-.35,17,3.84,17.71,13.48.68,9.85-7.11,14.26-16,16-8,1.57-16.71-1.69-24,2.78-6.69,14.84,25.9,27.79,3.35,41-20.8,12.19-23-15.06-34-22.55-12.21,2.75-12.95,13.48-18,20.57-4.89,6.93-10.83,11-18.9,5.83-7.58-4.84-12.49-11.43-7.2-20.95,4.85-8.73,9.26-17.81,15.07-25.87,11.09-15.4,3.93-27.37-4.7-40.66-9.76-15-24-10.12-36.07-8.75-14.72,1.67-17.55,17.24-21.16,28.25C570,551.94,582,561.86,587.07,573c5.23,11.44,19.16,23.58.7,33.62-17.68,9.61-19-9.49-25.95-18.31-2-2.57-4.32-4.91-6.87-7.78-16,3.37-17.23,38-40,21.67-18.48-13.21,10.74-25,5.39-39.81-8.06-5.15-17.79-.71-26.37-3.38-8.38-2.61-15.67-7.6-14.49-17.6,1.09-9.17,8.64-11.31,16.78-11.36,9.17-.06,18.45-1,27.48.07,25,3,32.14-16.88,36.82-33.09,3.49-12.11-7.35-27.89-19.64-30.84-15.43-3.71-35.34-8.76-44.27,14.76-3.17,8.34-9.32,15.77-15,22.86-5.07,6.29-10.69,14.2-20.55,6.65-7.8-6-8.65-13-4.39-22,3.11-6.54,10-11.47,9.27-20.38-11.05-9.19-37.12,4.43-37-19.08.17-24.63,26.87-7.31,37.59-18.21,2.67-10.59-6.79-16.28-10.34-24.24-4.15-9.33-2.34-16.06,5.38-21.79,8.69-6.44,14.48,0,18.85,5.72,6.51,8.56,12.73,17.69,17.1,27.46,9.05,20.21,26.45,20.79,41.94,14.75,12.76-5,24.05-20.83,20.87-33.53-3.78-15.09-11.41-34.42-35.71-30-8.06,1.47-16.63.28-25,.15-10.28-.17-18.63-4.69-20.13-15-1.74-12,8.82-14.43,17.44-17.52,7.63-2.74,16.72,2,24.17-4.78.06-13.31-23.82-27.69-4.35-38.82,22.11-12.64,23.12,16.84,35.51,25,8.5-3.12,9.22-11.55,13-17.6,5.56-9,11.64-17.75,23.42-11.12,11.2,6.31,9.72,16.1,3.64,25.81-4.42,7.05-8.23,14.52-13.06,21.27-12.89,18-2.88,33.39,8.91,44.14,10.32,9.41,28,9.86,38.74-.32,11.57-11,23.27-25.29,9.73-43.78-5.38-7.34-9.27-15.77-14.12-23.52-5.9-9.44-4.7-17.59,4.54-23.72,10.16-6.75,15.36,2,20.35,8.09,5.19,6.35,9,13.81,14,21.65,14.73-6.91,15.09-39.46,38.11-25.62,17.71,10.65-2.52,24.37-5.07,37.25,6.62,9.29,17.09,2.94,25.12,6.11,7.86,3.11,17.29,5.58,17,15.67-.3,10.55-8.19,16-18.47,16.64-9.14.56-18.48,1.28-27.47,0-23.53-3.3-31.48,13.82-35.95,30.16-3.36,12.29,7,26.53,17.82,29.32,15.46,4,35,9.75,46.14-11.33,4.65-8.81,9.57-17.63,15.6-25.49,4.85-6.33,10.74-14.14,20.6-6.71,7.87,5.93,8.74,13,4.47,22-3.48,7.33-11.17,12.75-10.47,22.65,9.23,13.41,39-6.26,38.07,19.92C786.21,471.08,763.12,460.95,747.91,467.82ZM613.69,480.19c14.58-1.73,25.52-13.49,27.19-31.66,1.6-17.29-16-33.56-33-33.53-16.53,0-34.28,17.37-34,33.23S592.25,480.75,613.69,480.19Z"/><path d="M314.66,502.31c10.21,7.94,33.43-4.1,31,16.94-2.16,18.68-22,11.26-33.56,10.41-22.28-1.63-27.48,15.83-31.52,29-2.78,9.1,6.25,22.88,18.73,25.69,14.06,3.16,28.8,3.18,34.45-15.16.72-2.34,2.28-4.44,3.52-6.61,5.4-9.5,11.27-21.84,24.1-15.93,13.51,6.22,3.16,16.92.22,25.68-1,3-1.78,6.06-2.49,8.49,8.39,9.65,29.48-3.48,28.76,17.4-.66,19.07-19.27,7.17-28.27,15.3a56,56,0,0,0,1.44,8.22c2.78,8.87,13.63,19.67,1.3,26.27-14.15,7.58-19.89-6.54-25.66-16.55-15.43-26.73-36.14-30.36-50.53-8.77C276,638,287.41,662.62,305.74,664.92c2.46.31,5.09-.34,7.48.17,11.73,2.5,31.59-7.59,32.49,12.11.75,16.49-19.85,9.59-30.28,15-4.86,11.95,18,25.67-.12,35.11-17,8.87-16.13-15.44-28.48-18.69-.43.11-2.41,0-3.22.94-7,8.07-10.2,26.86-24.36,18.37-15.86-9.51-3.12-23.64,3.54-34.09,7.87-12.37,6.44-23.2-.38-35-6.43-11.16-16.77-9.51-26.53-8.68-13,1.1-18.68,11.77-21.09,22-3.11,13.15,8.73,22.52,13.38,33.83,3.3,8,7.71,16.2-2.25,21.79-10.14,5.69-15-2.23-19.3-9.79a26.88,26.88,0,0,0-2.81-4.12c-1.61-1.88-3.39-3.62-5.7-6-12.32,2.53-14,27.61-29.69,18.28-14.94-8.87,1.48-22.26,1.46-33.49a17.43,17.43,0,0,0-2.63-1.58c-10.5-3.66-30,3.81-28.26-15.39,1.7-18.61,19.93-9.12,30.75-10.11,11.51-1.05,20.55-2.83,27.39-13.47,10.55-16.42,4.06-31.66-8.28-39-11.8-7.06-29.53-8.44-37.81,10.53a56.21,56.21,0,0,1-3.5,6.63c-6.2,10.21-10.69,27.32-26.62,17.55-15.58-9.56,1.71-19.59,4.41-29.46.41-1.49.06-3.18.06-5.1-9-8.31-31.48,4.39-31-15.91.47-18.45,20.43-8.19,30.24-14.08,3.82-6.89-2.63-10.48-5-15.35-3.58-7.45-9.65-15.51,1.74-21,9.07-4.41,15.4.22,20.81,8.13,8.35,12.23,10.23,29.92,31.58,30.89,19.61.9,26.28-12,27.73-25.29,1.56-14.3-6.21-27.64-23.43-29.91-7.38-1-15-.12-22.48-.35-7.32-.23-16.29,1.25-17.22-9.51s6-14.6,15.62-15c4.89-.22,9.78-.55,14.79-.83,2.82-13.11-16.79-27.84.83-36.24,13.39-6.38,17,12.05,25.52,18.72,4.88.1,7.09-3.6,9.43-6.88,5.55-7.8,9.68-20.76,22.31-12,11.8,8.13,2.29,18-1.91,26.4-7,14-17.69,26.9-2.8,42.76,9.72,10.35,21.8,10.78,32,6,12.11-5.67,16.11-18.4,13.34-32-.64-3.13-2.85-5.93-4.32-8.9-5.61-11.31-19.79-25.35-5.07-34.74,16.87-10.76,18.25,13.56,28.49,20.42,12.74-2.44,10.44-29.48,28.39-20.39C332.49,476.79,313.57,489.54,314.66,502.31Zm-46.43,97.07c-1.09-17.77-9.23-28.11-26.1-28.95-17.6-.87-26.59,11.2-27.68,26.14-1.2,16.33,10.49,26.76,26.16,27.79C257.36,625.45,265.35,613.7,268.23,599.38Z"/></g></g></svg>