<svg xmlns="http://www.w3.org/2000/svg" viewBox="0 0 779.19 1000"><title>Recurso 13</title><g id="Capa_2" data-name="Capa 2"><g id="Capa_1-2" data-name="Capa 1"><path d="M316.78,145.15C400,145.21,466,198.47,482.62,280.4c3.89,19.2,13.62,30.69,28.92,43.16,72.91,59.44,78.91,64.44,151.28,75,88.45,19.78,134.21,118.1,109.9,204C748,689.75,662.44,741.47,572.36,722.73c-16.33-3.4-29-1.69-43.26,8.33C443,791.49,336,791.25,249.51,730.66c-13.28-9.3-25.19-11.54-40.69-8.38C113,741.87,26.24,687,4.42,593.82-16.37,505,38,417.05,130.33,393c22.67-5.9,28.73-13.16,22.36-37.38C124,246.54,204,145.07,316.78,145.15Zm55.7,581.54c66.07-.22,112.46-18.39,149.51-53.52,11.43-10.83,20-13.72,35.59-6.53C606.09,689,665,676.34,698.48,639a121.92,121.92,0,0,0,16.93-138.08c-24.77-47.08-73.75-72-128.53-62.62-18.18,3.12-28.22-1.6-39.08-15.75-86.69-113-229.34-113.12-316.16-.28-10.7,13.91-20.52,19.44-38.95,16.21-55-9.63-103.76,15-128.72,62.08C39.64,546.53,47.06,603.16,82.35,640.72c33.82,36,91.56,47.82,139,26.15,15.15-6.93,24-5.26,35.67,6C294.08,708.61,339.21,726.07,372.49,726.69ZM197.68,313.29c0,5.46-.39,11,.08,16.39,1,11.79.43,27.08,10.9,32.3,13.18,6.58,19.13-10,27.52-17C285.47,303.7,342.54,286.52,406,289.26c27.89,1.2,31.37-2.78,19.8-27.26-24.89-52.65-81.05-79-139.37-65.48C235.19,208.42,197.23,258.16,197.68,313.29Z"/><path d="M305.27,812.2c.45,19.63-15.76,37-35.62,38.24-18.91,1.15-37-15.65-38.16-35.5-1.12-18.75,16.47-37.79,35.34-38.24C286.14,776.25,304.84,793.51,305.27,812.2Z"/><path d="M644,850.62c-19.63.54-37.08-15.61-38.36-35.5-1.22-18.91,15.51-37,35.36-38.28,18.72-1.19,37.84,16.35,38.37,35.21C680,831.32,662.73,850.1,644,850.62Z"/><path d="M454.36,885.92c-21.56-.4-37.11-15.84-35.93-35.67,1.14-19.06,19.31-36,38-35.51s36,18.65,36,37.55C492.29,872.33,476.46,886.33,454.36,885.92Z"/><path d="M378.5,962c.42,21.24-14.07,37.28-34.3,38s-35.93-14.47-36.68-35.58c-.74-20.54,14.44-37.42,34.32-38.18C361.37,925.47,378.1,941.81,378.5,962Z"/><path d="M603.26,961.84c.52,21.23-13.9,37.35-34.11,38.13s-36-14.31-36.87-35.39c-.83-20.59,14.2-37.48,34.13-38.36C585.89,925.37,602.76,941.66,603.26,961.84Z"/><path d="M340.75,46.92c-1.52,19.46,4.75,45.05-22.62,45.87-27.73.83-27.26-23.92-26.76-44.25S286.69.36,316.4,0C348.14-.37,337.82,29.07,340.75,46.92Z"/><path d="M168.09,141c.26,17.42-18.86,29.82-34.58,20.9a112.55,112.55,0,0,1-42-41.59c-10-17.42.35-34.61,18.93-34.85C127.95,85.27,167.83,123.67,168.09,141Z"/><path d="M48.91,338.1c-19.2-2.6-46.65,5.7-46.21-24.52.41-28.07,26.21-24.93,45.95-25,20.75-.12,47.77-2.88,46.88,26.73C94.65,344.42,66.81,335.41,48.91,338.1Z"/><path d="M583.34,337.39c-5.46,0-10.93.19-16.39,0-15.12-.56-27.53-5.54-28.47-22.84-1-17.57,11.37-23.86,26.18-25.21a225.1,225.1,0,0,1,38.17-.13c14.69,1.17,27.47,6.84,27.18,24.38-.29,17.22-12.21,23-27.55,23.74C596.1,337.61,589.71,337.37,583.34,337.39Z"/><path d="M546.85,106.65c.64,15.69-44,59.81-59.21,58.45-16.91-1.51-27.06-19.42-17.57-34.66,10.59-17,25-31.79,42.31-42C527.57,79.54,546.19,90.48,546.85,106.65Z"/></g></g></svg>