<svg xmlns="http://www.w3.org/2000/svg" viewBox="0 0 734.74 839.75"><title>Recurso 12</title><g id="Capa_2" data-name="Capa 2"><g id="Capa_1-2" data-name="Capa 1"><path d="M249.92,669.17c-.4-16.08,16.43-33.71,32.55-34.11,17.92-.45,35.84,15.92,36.64,33.45.78,17.19-16.82,35.57-34.25,35.77S250.37,687.33,249.92,669.17Z"/><path d="M659.42,667.7c.41,17.93-16,35.83-33.5,36.59-17.21.75-35.55-16.87-35.72-34.31s17-34.46,35.17-34.88C641.44,634.73,659,651.59,659.42,667.7Z"/><path d="M455.64,735.4c-21.4.31-35.62-12.52-35.74-32.22-.09-16.24,16.7-32.76,33.76-33.2,18.27-.48,36.13,16.39,35.71,33.72C488.93,722.6,475.63,735.11,455.64,735.4Z"/><path d="M351.59,839.75c-19.71-.38-33.2-15.59-32-36.43,1.13-20.16,14.74-29.52,32.15-32.09,16.53-2.44,34,17.91,33.24,35.89C384.14,826.71,370.45,840.11,351.59,839.75Z"/><path d="M557.43,839.75c-18.83.21-32.41-13.3-33.09-32.93-.62-18,16.78-36.63,33.58-36,16.13.6,32.14,18.33,31.85,35.26C589.44,825.88,576.32,839.54,557.43,839.75Z"/><path d="M712,272.59c56.76-86.32.54-195.88-92.43-202.77-14.44-1.07-26.09-7.32-37-17.82-72.75-69.93-175.45-69.24-247.75,1.5a56.37,56.37,0,0,1-32.62,16.11c-75.9,11.29-117.23,56.89-116.95,132,.07,19.1-5.6,24.91-24.05,23.37C73.92,217.68-1.4,300.61,0,388.06c-2.21,95,87.29,187.12,200.27,159.22,12.51-3.09,21.3-1,31.82,6.88,81.88,61.64,188.28,61.5,270.58-.37,10.65-8,19.6-9.71,31.94-6.32a147.15,147.15,0,0,0,83.05-1.29c102.92-31.39,147-144.6,93.71-241.48C704.92,292.88,703.35,285.68,712,272.59ZM325.72,117c12.94,2.86,19.45,1.53,26-10C390.82,38.58,506.41,20.7,566,105.82c7.21,10.28,12.57,13.15,25.81,10.81,33.9-6,61.89,6.54,81.77,35.19,20,28.91,19.87,58.59,3.38,89.15-5.27,9.76-9.27,13.52-20.47,6-26.27-17.65-55.76-25-87.58-22.23-10.29.91-18-1.47-25.65-10.7-75.66-90.92-189.47-110.7-293.38-52-1.94,1.1-4.42,1.25-9.9,2.69C255,128.63,289.87,109.08,325.72,117ZM676,440.61c-20.24,42.12-55.9,61.65-101.29,64.89-15.77,1.2-30.94-1.82-43.5-9.84-17.24-11-27.92-7.67-42.08,6.74-55.87,56.88-148.73,66-215.94,23.23-32.47-20.67-58.71-26.33-96.6-20.85-54.25,7.85-109-27.75-124.87-81.24-17.62-59.26,8.5-118.42,63.34-143.43,23.51-10.72,47.86-14.12,72.69-5.92,12.13,4,18.51,1.78,25.73-9.8,73.73-118.22,233.76-118.33,307.47-.2,7.16,11.47,13.41,13.59,25.65,10.17,48.52-13.56,86.88,4.73,116.38,42.18C692.86,354.45,696.94,397.05,676,440.61Z"/></g></g></svg>