<svg xmlns="http://www.w3.org/2000/svg" viewBox="0 0 655.22 735.53"><title>Recurso 8</title><g id="Capa_2" data-name="Capa 2"><g id="Capa_1-2" data-name="Capa 1"><path d="M546,.2c26.83,0,40.25,10.25,39,30.53-1.44,24.11-18.51,29.2-38.57,29.21q-253.63.09-507.26,0c-26.4,0-40.58-11.39-39-31.17C2,5.11,17.9-.1,38.73,0,123.68.4,461.86.11,546,.2Z"/><path d="M39.11,175.46c-26.87,0-40.19-10.25-39-30.57,1.47-24.15,18.65-29.19,38.63-29.2q253.64-.14,507.28,0c26.35,0,40.53,11.52,38.95,31.31-1.88,23.65-17.86,28.72-38.63,28.62C461.42,175.27,123.24,175.57,39.11,175.46Z"/><path d="M544.94,235.11c27.52,0,40.08,9.38,40.24,29.46.15,19.65-13.31,30.28-40.16,30.3q-252.39.22-504.78,0C13.35,294.85-.1,284.28,0,264.65c.1-20.11,12.67-29.52,40.16-29.54C124.29,235,460.81,235,544.94,235.11Z"/><path d="M39,410.38C12.3,410.35-1.16,400,.16,379.71c1.56-24.07,18.67-29.06,38.71-29.07q253.63-.08,507.26.06c26.34,0,40.53,11.51,38.88,31.31-2,23.6-17.93,28.68-38.7,28.58C461.35,410.18,123.17,410.47,39,410.38Z"/><path d="M348.78,735.52c-19.1.48-35.81-14.63-36.59-33.09-.75-17.55,16.39-35.77,34.25-36.43,18.07-.67,35.75,15.79,36.62,34.09C383.92,718.17,367.6,735,348.78,735.52Z"/><path d="M551.55,666c18.07-.66,35.73,15.8,36.59,34.11.85,18.1-15.47,34.95-34.29,35.41-19.1.47-35.8-14.65-36.57-33.11C516.56,684.85,533.69,666.64,551.55,666Z"/><path d="M415.4,598.4c-.08-19.49,14.76-33.58,35.36-33s32.41,11.36,34,31.75c1.45,19-16.91,37.93-35.17,37.51C432.23,634.26,415.48,616.48,415.4,598.4Z"/><path d="M245.1,565.9c-.51-20.6,13-34.9,33.48-35.43,17.84-.46,35.62,16.53,35.91,34.32.27,16.3-16.59,34.14-33.13,35.07C264,600.84,245.54,583.58,245.1,565.9Z"/><path d="M655.22,564.94c0,17.77-17.69,35.28-35.3,34.93-16.48-.33-33.78-17.64-34.1-34.12-.34-17.61,17.18-35.3,35-35.28C641.3,530.5,655.21,544.41,655.22,564.94Z"/></g></g></svg>