<?xml version="1.0" encoding="utf-8"?>
<!-- Generator: Adobe Illustrator 18.0.0, SVG Export Plug-In . SVG Version: 6.00 Build 0)  -->
<!DOCTYPE svg PUBLIC "-//W3C//DTD SVG 1.1//EN" "http://www.w3.org/Graphics/SVG/1.1/DTD/svg11.dtd">
<svg version="1.1" id="Capa_1" xmlns="http://www.w3.org/2000/svg" xmlns:xlink="http://www.w3.org/1999/xlink" x="0px" y="0px"
	 viewBox="0 0 1000 1000" enable-background="new 0 0 1000 1000" xml:space="preserve">
<g display="none">
	<path d="M0,0c333.3,0,666.7,0,1000,0c0,333.3,0,666.7,0,1000c-333.3,0-666.7,0-1000,0C0,666.7,0,333.3,0,0z M230.6,504
		c-22,0.2-40.5,3.5-58.3,10c-18.9,6.9-36.2,16.3-52.7,27.8c-78,54.4-106.7,163-66.9,248.9c44.1,95.3,141.4,138.1,240,113.5
		c14-3.5,23.1-1.2,34.1,6.2c119.5,81.3,231.7,81.3,352.3-0.6c11.4-7.8,20.7-8.5,34.2-5.4c70.8,16.3,135.9,4.2,190.3-46.2
		c68.4-63.4,85-152.3,46.7-239.7c-33.1-75.6-113-121-203.1-114.8c-9.2,0.6-13.1-3.7-18.1-9.9c-25.4-31.5-55.8-57.1-92.2-75
		c-11.9-5.8-16.2-13.5-18-26.6c-7.1-50-28.8-92.3-65.9-128C451.2,166.7,273.2,207,224.4,339C204,394,204.9,447.6,230.6,504z
		 M238.9,206.5c-1-2.8-1.7-8.2-4.6-11.9c-16-20.2-33.7-39-54.6-54.2c-12.4-9-24.1-3.1-33.5,6.3c-9.5,9.5-14.4,21.5-5.4,33.6
		c14.9,20.1,32.6,38.1,52.6,52.9C210.7,246.2,237.9,230.4,238.9,206.5z M693.2,165.9c-2-12-8.5-20.7-19.7-26.6
		c-11.6-6.1-21.5-2.3-29.6,5.2c-15.3,14-30,28.7-44.1,43.9c-12.2,13.1-11.1,27.3,1.3,39.8c13.3,13.4,27.9,13.9,41.7,0.8
		c13.9-13.1,27-27,40.7-40.4C689.7,182.5,690.6,174.1,693.2,165.9z M735.8,444.8C735.8,444.7,735.8,444.7,735.8,444.8
		c9.9-0.1,20,0.8,29.8-0.3c18.1-2.1,28.9-12.8,29-31.2c0.1-18.6-13.3-26.4-29.2-27.7c-19.8-1.6-39.8-1.5-59.6-0.1
		c-17.2,1.2-28.2,13.7-28.1,29.5c0.1,15.8,11.2,27.5,28.3,29.5C715.8,445.7,725.8,444.8,735.8,444.8z M385.4,92.6c0,0-0.1,0-0.1,0
		c0,10.8-1.3,21.8,0.3,32.4c2.4,15.8,12.1,25,28.9,25.3c16.8,0.3,28-8.8,29.5-24.4c2-21.4,2.1-43.4-0.2-64.8
		c-1.6-14.6-10.7-26-28.4-26.1c-18.8-0.1-26.9,11.7-29.7,27.7C384,72.4,385.4,82.6,385.4,92.6z M92.4,444.5c0,0.1,0,0.1,0,0.2
		c10.8,0,21.8,1.3,32.4-0.3c15.7-2.4,25.1-12,25.5-28.8c0.4-16.8-8.6-28.2-24.2-29.7c-21.4-2.1-43.4-2-64.8,0.2
		c-14.7,1.5-26.1,10.6-26.3,28.2c-0.2,18.8,11.6,26.9,27.5,29.9C72.1,446,82.4,444.5,92.4,444.5z"/>
	<path display="inline" d="M230.6,504C204.9,447.6,204,394,224.4,339c48.9-132,226.9-172.3,328.5-74.7c37.1,35.7,58.8,78,65.9,128
		c1.9,13.1,6.1,20.8,18,26.6c36.4,17.8,66.8,43.5,92.2,75c5,6.2,8.9,10.5,18.1,9.9c90.1-6.2,170,39.2,203.1,114.8
		c38.3,87.4,21.7,176.3-46.7,239.7c-54.4,50.4-119.5,62.6-190.3,46.2c-13.5-3.1-22.8-2.4-34.2,5.4c-120.6,81.8-232.7,81.9-352.3,0.6
		c-10.9-7.4-20.1-9.7-34.1-6.2c-98.6,24.6-195.9-18.1-240-113.5c-39.7-85.9-11.1-194.5,66.9-248.9c16.5-11.5,33.9-20.9,52.7-27.8
		C190.1,507.6,208.6,504.2,230.6,504z M763.5,850.5c53.6,2.8,92.4-20.4,121.3-60.5c34.5-47.9,34.7-113.1,2.4-161.8
		c-35.2-53.1-94.1-76.9-158.3-61.5c-15.2,3.6-21.3,0.8-29.6-12c-96.1-147.1-297.1-146.5-394,0.9c-7.6,11.6-13.5,15.9-27.8,11.6
		c-20.5-6.3-41.5-7.4-63.7-3.1c-78.8,15.3-133.1,92-118,170.2c15.6,80.6,98.8,137.7,176.3,112.6c39.4-12.7,62-7.9,94.8,17.3
		c94.6,72.9,212,61.3,299.1-22.6c10.5-10.2,18.6-13,32.4-5.7C719.1,846.8,741.6,853.2,763.5,850.5z M553.5,389.4
		c1.1-46.9-42.9-96.1-91.8-112.8c-55.1-18.8-124.4,0.7-158.5,43.7c-38.2,48.1-44.8,111.7-15.6,158.5
		C361.1,406.1,448.5,373.4,553.5,389.4z"/>
	<path display="inline" d="M238.9,206.5c-1,23.9-28.2,39.6-45.6,26.7c-20-14.8-37.7-32.8-52.6-52.9c-9-12.2-4-24.1,5.4-33.6
		c9.3-9.4,21.1-15.3,33.5-6.3c20.9,15.2,38.6,34,54.6,54.2C237.2,198.3,237.9,203.7,238.9,206.5z"/>
	<path display="inline" d="M693.2,165.9c-2.6,8.2-3.4,16.6-9.8,22.8c-13.6,13.4-26.8,27.3-40.7,40.4c-13.8,13-28.4,12.6-41.7-0.8
		c-12.3-12.5-13.5-26.7-1.3-39.8c14.1-15.2,28.8-29.9,44.1-43.9c8.2-7.5,18-11.4,29.6-5.2C684.7,145.3,691.2,153.9,693.2,165.9z"/>
	<path display="inline" d="M735.8,444.8c-9.9,0-20,0.9-29.8-0.2c-17.1-2-28.2-13.8-28.3-29.5c-0.1-15.8,11-28.3,28.1-29.5
		c19.8-1.4,39.8-1.5,59.6,0.1c15.9,1.3,29.3,9.1,29.2,27.7c-0.1,18.4-10.9,29.1-29,31.2C755.8,445.6,745.7,444.7,735.8,444.8
		C735.8,444.7,735.8,444.7,735.8,444.8z"/>
	<path display="inline" d="M385.4,92.6c0-10-1.4-20.2,0.3-29.9c2.8-16,10.9-27.8,29.7-27.7c17.6,0.1,26.8,11.5,28.4,26.1
		c2.3,21.4,2.3,43.4,0.2,64.8c-1.5,15.6-12.7,24.7-29.5,24.4c-16.7-0.3-26.5-9.6-28.9-25.3c-1.6-10.6-0.3-21.6-0.3-32.4
		C385.3,92.6,385.4,92.6,385.4,92.6z"/>
	<path display="inline" d="M92.4,444.5c-10,0-20.2,1.5-29.9-0.3c-15.9-2.9-27.7-11.1-27.5-29.9c0.2-17.6,11.6-26.7,26.3-28.2
		c21.4-2.2,43.4-2.2,64.8-0.2c15.6,1.5,24.6,12.9,24.2,29.7c-0.4,16.8-9.8,26.4-25.5,28.8c-10.6,1.6-21.6,0.3-32.4,0.3
		C92.4,444.6,92.4,444.6,92.4,444.5z"/>
	<path d="M763.5,850.5c-21.8,2.8-44.4-3.7-65.1-14.6c-13.8-7.3-21.9-4.5-32.4,5.7c-87,83.9-204.4,95.5-299.1,22.6
		c-32.7-25.2-55.4-30.1-94.8-17.3c-77.6,25.1-160.8-31.9-176.3-112.6c-15.1-78.2,39.1-154.9,118-170.2c22.2-4.3,43.2-3.1,63.7,3.1
		c14.3,4.4,20.1,0,27.8-11.6c96.9-147.5,297.9-148,394-0.9c8.3,12.8,14.4,15.6,29.6,12c64.2-15.4,123.1,8.4,158.3,61.5
		c32.3,48.7,32.1,113.9-2.4,161.8C855.8,830.1,817.1,853.3,763.5,850.5z"/>
	<path d="M553.5,389.4c-105.1-16-192.4,16.7-265.9,89.4c-29.2-46.8-22.6-110.4,15.6-158.5c34.1-43,103.5-62.5,158.5-43.7
		C510.7,293.3,554.7,342.5,553.5,389.4z"/>
</g>
<g display="none">
	<path fill="#FEFEFE" d="M1000,1003c-333.3,0-666.7,0-1000,0C0,669.7,0,336.3,0,3c333.3,0,666.7,0,1000,0
		C1000,336.3,1000,669.7,1000,1003z M269.4,397.7c-23.5,1.7-43.3,1.3-63.1,4.4C94.7,420.1,15.7,529.7,37.8,645.6
		c23.8,125.1,135.3,196.1,253.7,165.7c15.6-4,25.9-2.1,38.3,8.2c93.6,77.5,248.9,78.5,343.1,1.9c13.9-11.3,25-14.2,42.6-9.6
		c82.7,21.5,165.4-9.4,216-78.8c47.9-65.8,52.4-162.3,8.9-230.7c-9.7-15.3-8.6-25.2,1.1-39.7c36-53.5,39.6-111.1,10.8-168
		c-29.2-57.7-77.4-90-143.7-91.5c-8.6-0.2-15-2-21.7-8.9c-99.8-102.2-230.2-103.8-330.8-4.3c-8.9,8.8-17.6,12.9-30.4,13.5
		c-61.2,3.2-106.2,32.5-136.8,85.8C269.8,322.6,269.1,358.7,269.4,397.7z"/>
	<path display="inline" d="M269.4,397.7c-0.3-39,0.4-75.1,19.6-108.5c30.6-53.4,75.6-82.7,136.8-85.8c12.7-0.7,21.5-4.7,30.4-13.5
		c100.6-99.5,231.1-97.8,330.8,4.3c6.7,6.9,13.1,8.7,21.7,8.9c66.3,1.5,114.5,33.8,143.7,91.5c28.8,56.9,25.2,114.5-10.8,168
		c-9.7,14.5-10.9,24.4-1.1,39.7c43.5,68.4,39,164.9-8.9,230.7c-50.5,69.4-133.3,100.3-216,78.8c-17.5-4.6-28.7-1.6-42.6,9.6
		c-94.2,76.6-249.5,75.6-343.1-1.9c-12.4-10.3-22.8-12.2-38.3-8.2C173.1,841.7,61.6,770.6,37.8,645.6
		C15.7,529.7,94.7,420.1,206.2,402.2C226.1,399,245.9,399.5,269.4,397.7z M683,736c6-1,11.7,2.4,17.8,5.4
		c18.3,9,36.7,16.1,57.4,16.6c62.1,1.3,108.6-27,136-80.5c28.5-55.5,22.7-111.9-16-161.9c-36.8-47.5-88-61.7-145-50.4
		c-20.1,4-28.4-1.9-37.8-16.8c-32-50.5-76.6-85.3-134.8-100.3c-98.3-25.2-193.8,13.2-250.9,100.5c-9.7,14.9-17.9,21.1-37.9,16.3
		c-63-15.2-121.5,10.6-154.9,64.5c-31.6,51-29.5,119.6,5.1,167.1c36.4,49.9,95.7,72.2,153.9,56.2c15-4.1,19-7.5,33.2-13.7
		c1.4-0.6,7-4,12-3c7,1,11.9,6.9,13,8c8.2,8.6,9.4,9.3,18.1,16.6c99.7,82.9,226.8,75.6,319.9-17.6C675.2,739.8,676,738,683,736z
		 M342.5,325.4c7,3.1,10.5-3.3,15-6c47-27.8,98.5-42.3,152.2-40.1c75.5,3.1,142.7,30.5,195.6,86.6c19.1,20.3,32.6,35.1,69.1,33.9
		c2.9-0.1,6.4,0.2,9.7,0.5c37,3.6,70.2,17.8,100.5,37.8c30.9-38.6,34.5-82.1,11.5-122.6c-19.8-35-62.3-59.5-100.5-51
		c-23.7,5.3-33.8-3-46.3-19.7c-68.8-91.7-199.6-88.6-264.5,6.3c-10.1,14.8-19.4,19.9-36.8,14.1C413.7,253.6,350.3,282.9,342.5,325.4
		z"/>
	<path fill="#FEFEFE" d="M682.5,732.1c-102.8,112.2-253.1,115.7-359.1,1.2c-15.6,6.5-31.1,14.9-47.6,19.4
		c-58.2,16-117.5-6.2-153.9-56.2c-34.6-47.5-36.7-116.1-5.1-167.1c33.4-53.9,92-79.7,154.9-64.5c20,4.8,28.2-1.4,37.9-16.3
		c57.1-87.2,152.5-125.7,250.9-100.5c58.2,14.9,102.8,49.7,134.8,100.3c9.4,14.9,17.7,20.8,37.8,16.8c57-11.4,108.1,2.9,145,50.4
		c38.8,49.9,44.5,106.3,16,161.9c-27.5,53.5-74,81.9-136,80.5C730.6,757.4,707,744.8,682.5,732.1z"/>
	<path fill="#FDFDFD" d="M342.5,325.4c7.7-42.5,71.1-71.9,105.5-60.4c17.4,5.9,26.7,0.7,36.8-14.1c65-94.9,195.7-98,264.5-6.3
		c12.5,16.7,22.6,25,46.3,19.7c38.2-8.5,80.7,16.1,100.5,51c23,40.6,19.4,84.1-11.5,122.6c-30.3-20-63.5-34.3-100.5-37.8
		c-3.3-0.3-6.9-2.4-9.7-1.5c-33.3,10.4-50-12.6-69.1-32.9c-52.9-56.1-120-83.5-195.6-86.6c-53.7-2.2-105.3,12.3-152.2,40.1
		C353,322.2,349.6,328.6,342.5,325.4z"/>
</g>
<g display="none">
	<path fill="#FEFEFE" d="M0.1,997V-3h999.5V997H0.1z M499.4,462c25.8,0,51.6,0,77.4,0c62.4,0,124.8-0.3,187.3,0.2
		c14.9,0.1,22.7-7.3,28.5-19.6c5.8-12.4-1.2-20.9-8.3-28.9c-9.6-10.9-23-11.6-36.7-11.5c-73.2,0.2-146.5,0.1-219.7,0.1
		c-93.2,0-186.4-0.1-279.6,0.1c-19.6,0.1-37.3,4.3-38,29.2c-0.6,23.2,8.3,30.4,37,30.4C331.3,462,415.3,461.9,499.4,462z
		 M498.7,346.4c84.2,0,168.3,0,252.5,0c24.2,0,43.7-14.4,42.9-31.4c-0.9-19.4-13.8-28.3-42.1-28.3c-167.5-0.1-335-0.1-502.5,0
		c-29.6,0-39.1,7.2-39.4,29.2c-0.3,22.1,11,30.5,41.1,30.5C333.7,346.4,416.2,346.4,498.7,346.4z M500.2,521.6
		c-84.1,0-168.2-0.1-252.3,0c-28.5,0-38.6,8.3-37.7,30.9c1.1,24.8,18.9,28.8,38.4,28.8c167.4,0.1,334.7,0.1,502.1,0
		c24.8,0,43.7-13.9,44.1-31.5c0.5-17.5-15.3-28.2-42.4-28.2C668.3,521.5,584.3,521.6,500.2,521.6z M499.4,696.9
		c84.9,0,169.8-0.4,254.7,0.3c21,0.2,36.3-6,39.8-28c2.6-16.2-17.2-31.8-40.2-31.9c-168.9-0.2-337.9-0.2-506.8,0
		c-24.6,0-37.1,11.3-36.6,30.7c0.5,24.8,16.3,29.2,37.1,29.1C331.3,696.6,415.3,696.9,499.4,696.9z"/>
	<path display="inline" d="M247.2,461.9c-28.7,0-37.6-7.2-37-30.4c0.7-24.9,18.4-29.2,38-29.2c93.2-0.2,426.1,0,499.4-0.2
		c13.7,0,27.1,0.6,36.7,11.5c7,8,14.1,16.6,8.3,28.9c-5.8,12.4-13.6,19.7-28.5,19.6C701.6,461.7,331.3,462,247.2,461.9z"/>
	<path display="inline" d="M251.2,346.4c-30.1,0-41.4-8.5-41.1-30.5c0.3-22,9.8-29.2,39.4-29.2c167.5-0.1,335-0.1,502.5,0
		c28.3,0,41.2,8.9,42.1,28.3c0.8,17-18.7,31.4-42.9,31.4C667,346.4,333.7,346.4,251.2,346.4z"/>
	<path display="inline" d="M752.4,521.6c27.1,0,42.9,10.7,42.4,28.2c-0.5,17.5-19.3,31.4-44.1,31.5c-167.4,0.1-334.7,0.1-502.1,0
		c-19.6,0-37.4-4-38.4-28.8c-1-22.6,9.1-30.8,37.7-30.9C332,521.5,668.3,521.5,752.4,521.6z"/>
	<path display="inline" d="M247.2,697c-20.8,0.1-36.6-4.3-37.1-29.1c-0.4-19.4,12-30.6,36.6-30.7c168.9-0.3,337.9-0.2,506.8,0
		c23,0,42.8,15.7,40.2,31.9c-3.5,22.1-18.7,28.2-39.8,28C669.2,696.5,331.3,696.6,247.2,697z"/>
</g>
<g display="none">
	<path display="inline" d="M419.3,145.1c83.2,0.1,149.2,53.3,165.8,135.3c3.9,19.2,13.6,30.7,28.9,43.2C687,383,693,388,765.4,398.6
		c88.5,19.8,134.2,118.1,109.9,204C850.6,689.8,765,741.5,674.9,722.7c-16.3-3.4-29-1.7-43.3,8.3c-86.1,60.4-193.1,60.2-279.6-0.4
		c-13.3-9.3-25.2-11.5-40.7-8.4C215.5,741.9,128.8,687,107,593.8C86.2,505,140.5,417.1,232.9,393c22.7-5.9,28.7-13.2,22.4-37.4
		C226.5,246.5,306.6,145.1,419.3,145.1z M475,726.7c66.1-0.2,112.5-18.4,149.5-53.5c11.4-10.8,20-13.7,35.6-6.5
		C708.6,689,767.6,676.3,801,639c33.9-37.9,40.7-93,16.9-138.1c-24.8-47.1-73.8-72-128.5-62.6c-18.2,3.1-28.2-1.6-39.1-15.7
		c-86.7-113-229.3-113.1-316.2-0.3c-10.7,13.9-20.5,19.4-38.9,16.2c-55-9.6-103.8,15-128.7,62.1c-24.4,45.9-16.9,102.6,18.4,140.1
		c33.8,36,91.6,47.8,139,26.1c15.2-6.9,24-5.3,35.7,6C396.6,708.6,441.8,726.1,475,726.7z M300.2,313.3c0,5.5-0.4,11,0.1,16.4
		c1,11.8,0.4,27.1,10.9,32.3c13.2,6.6,19.1-10,27.5-17c49.3-41.2,106.4-58.4,169.8-55.7c27.9,1.2,31.4-2.8,19.8-27.3
		c-24.9-52.6-81.1-79-139.4-65.5C337.7,208.4,299.8,258.2,300.2,313.3z"/>
	<path display="inline" d="M407.8,812.2c0.5,19.6-15.8,37-35.6,38.2c-18.9,1.2-37-15.7-38.2-35.5c-1.1-18.8,16.5-37.8,35.3-38.2
		C388.7,776.3,407.4,793.5,407.8,812.2z"/>
	<path display="inline" d="M746.6,850.6c-19.6,0.5-37.1-15.6-38.4-35.5c-1.2-18.9,15.5-37,35.4-38.3c18.7-1.2,37.8,16.4,38.4,35.2
		C782.5,831.3,765.3,850.1,746.6,850.6z"/>
	<path display="inline" d="M556.9,885.9c-21.6-0.4-37.1-15.8-35.9-35.7c1.1-19.1,19.3-36,38-35.5c18.7,0.5,36,18.6,36,37.6
		C594.8,872.3,579,886.3,556.9,885.9z"/>
	<path display="inline" d="M481.1,962c0.4,21.2-14.1,37.3-34.3,38c-20.3,0.7-35.9-14.5-36.7-35.6c-0.7-20.5,14.4-37.4,34.3-38.2
		C463.9,925.5,480.7,941.8,481.1,962z"/>
	<path display="inline" d="M705.8,961.8c0.5,21.2-13.9,37.4-34.1,38.1c-20.3,0.8-36-14.3-36.9-35.4C634,944,649,927.1,669,926.2
		C688.4,925.4,705.3,941.7,705.8,961.8z"/>
	<path display="inline" d="M443.3,46.9c-1.5,19.5,4.8,45.1-22.6,45.9c-27.7,0.8-27.3-23.9-26.8-44.3c0.5-20.2-4.7-48.2,25-48.5
		C450.7-0.4,440.4,29.1,443.3,46.9z"/>
	<path display="inline" d="M270.6,141c0.3,17.4-18.9,29.8-34.6,20.9c-17.5-9.9-32.1-24.3-42-41.6c-10-17.4,0.4-34.6,18.9-34.8
		C230.5,85.3,270.4,123.7,270.6,141z"/>
	<path display="inline" d="M151.5,338.1c-19.2-2.6-46.7,5.7-46.2-24.5c0.4-28.1,26.2-24.9,45.9-25c20.8-0.1,47.8-2.9,46.9,26.7
		C197.2,344.4,169.4,335.4,151.5,338.1z"/>
	<path display="inline" d="M685.9,337.4c-5.5,0-10.9,0.2-16.4,0c-15.1-0.6-27.5-5.5-28.5-22.8c-1-17.6,11.4-23.9,26.2-25.2
		c12.6-1.2,25.5-1.1,38.2-0.1c14.7,1.2,27.5,6.8,27.2,24.4c-0.3,17.2-12.2,23-27.5,23.7C698.7,337.6,692.3,337.4,685.9,337.4z"/>
	<path display="inline" d="M649.4,106.7c0.6,15.7-44,59.8-59.2,58.5c-16.9-1.5-27.1-19.4-17.6-34.7c10.6-17,25-31.8,42.3-42
		C630.1,79.5,648.7,90.5,649.4,106.7z"/>
</g>
<g display="none">
	<path fill="#FEFEFE" d="M0.4,500C0.4,339.3,0.7,178.6,0,17.9C-0.1,3,3,0,17.9,0c321.4,0.5,642.8,0.5,964.2,0
		C997,0,1000,3,1000,17.9c-0.5,321.4-0.5,642.8,0,964.2c0,14.9-3,17.9-17.9,17.9c-321.4-0.5-642.8-0.5-964.2,0
		c-14.9,0-18-3-17.9-17.9C0.7,821.4,0.4,660.7,0.4,500z"/>
	<path display="inline" d="M325.2,779c-0.4-16.1,16.4-33.7,32.6-34.1c17.9-0.4,35.8,15.9,36.6,33.4c0.8,17.2-16.8,35.6-34.3,35.8
		C342.8,814.3,325.7,797.1,325.2,779z"/>
	<path display="inline" d="M734.7,777.5c0.4,17.9-16,35.8-33.5,36.6c-17.2,0.7-35.6-16.9-35.7-34.3c-0.2-17.4,17-34.5,35.2-34.9
		C716.8,744.5,734.4,761.4,734.7,777.5z"/>
	<path display="inline" d="M531,845.2c-21.4,0.3-35.6-12.5-35.7-32.2c-0.1-16.2,16.7-32.8,33.8-33.2c18.3-0.5,36.1,16.4,35.7,33.7
		C564.3,832.4,551,844.9,531,845.2z"/>
	<path display="inline" d="M426.9,949.5c-19.7-0.4-33.2-15.6-32-36.4c1.1-20.2,14.7-29.5,32.1-32.1c16.5-2.4,34,17.9,33.2,35.9
		C459.5,936.5,445.8,949.9,426.9,949.5z"/>
	<path display="inline" d="M632.8,949.5c-18.8,0.2-32.4-13.3-33.1-32.9c-0.6-18,16.8-36.6,33.6-36c16.1,0.6,32.1,18.3,31.8,35.3
		C664.8,935.7,651.6,949.3,632.8,949.5z"/>
	<path display="inline" d="M787.3,382.4c56.8-86.3,0.5-195.9-92.4-202.8c-14.4-1.1-26.1-7.3-37-17.8
		c-72.8-69.9-175.4-69.2-247.8,1.5c-9.6,9.4-20.1,14.2-32.6,16.1c-75.9,11.3-117.2,56.9-116.9,132c0.1,19.1-5.6,24.9-24.1,23.4
		c-87.2-7.3-162.5,75.6-161.1,163.1c-2.2,95,87.3,187.1,200.3,159.2c12.5-3.1,21.3-1,31.8,6.9c81.9,61.6,188.3,61.5,270.6-0.4
		c10.7-8,19.6-9.7,31.9-6.3c27.6,7.6,55.7,7.1,83.1-1.3c102.9-31.4,147-144.6,93.7-241.5C780.2,402.7,778.7,395.5,787.3,382.4z
		 M401,226.8c12.9,2.9,19.5,1.5,26-10c39.1-68.4,154.6-86.3,214.3-1.2c7.2,10.3,12.6,13.1,25.8,10.8c33.9-6,61.9,6.5,81.8,35.2
		c20,28.9,19.9,58.6,3.4,89.1c-5.3,9.8-9.3,13.5-20.5,6c-26.3-17.6-55.8-25-87.6-22.2c-10.3,0.9-18-1.5-25.7-10.7
		c-75.7-90.9-189.5-110.7-293.4-52c-1.9,1.1-4.4,1.2-9.9,2.7C330.4,238.4,365.2,218.9,401,226.8z M751.3,550.4
		c-20.2,42.1-55.9,61.7-101.3,64.9c-15.8,1.2-30.9-1.8-43.5-9.8c-17.2-11-27.9-7.7-42.1,6.7c-55.9,56.9-148.7,66-215.9,23.2
		c-32.5-20.7-58.7-26.3-96.6-20.9c-54.2,7.9-109-27.8-124.9-81.2c-17.6-59.3,8.5-118.4,63.3-143.4c23.5-10.7,47.9-14.1,72.7-5.9
		c12.1,4,18.5,1.8,25.7-9.8C362.5,256,522.6,255.9,596.3,374c7.2,11.5,13.4,13.6,25.7,10.2c48.5-13.6,86.9,4.7,116.4,42.2
		C768.2,464.2,772.3,506.8,751.3,550.4z"/>
</g>
<g>
	<path display="none" fill="#FEFEFE" d="M1003,1000c-332.9,0-665.8,0-999.1,0c0-332.5,0-665.2,0-998.6C336.6,1.4,666.8,1,1000,1
		C1000,333.4,1003,666.8,1003,1000z M496.7,700.3c113.6,0.2,206-90.3,206.4-202.2c0.4-115.2-89.9-207.4-203.4-207.7
		c-113.6-0.2-206,90.3-206.4,202.2C292.8,607.8,383.2,700.1,496.7,700.3z M292,319.4c11.8-2.9,21-8.7,26.9-20.1
		c6-11.7,2.4-21.5-5.1-29.7c-14-15.3-28.8-30.1-44-44.2c-13.1-12.2-27.3-11.1-39.8,1.3c-13.5,13.4-13.7,27.9-0.6,41.7
		c13.1,13.9,26.9,27.3,40.5,40.6C275.9,315,283.3,318.7,292,319.4z M744.7,216.6c-2,0.7-6.5,1.2-9.7,3.5
		c-22.2,16.2-42.1,35-57.5,57.9c-8,11.9-1.2,22.7,7.2,31.2c9.4,9.4,21.5,14.7,33.6,5.6c20.5-15.6,39.7-33.3,54.1-54.6
		C783.6,243.4,767.4,217.7,744.7,216.6z M251.8,774.1c2.8-1,8.3-1.7,11.9-4.6c20.2-16.1,39-33.7,54.2-54.6c9-12.4,3.1-24.2-6.4-33.4
		c-9.5-9.4-21.4-14.5-33.6-5.4c-20.1,14.9-38,32.6-52.8,52.5C212.2,745.9,228,773.2,251.8,774.1z M707.9,671
		c-13.7,2-23,7.6-29.5,18.5c-6.5,10.9-4.9,21.4,2.8,30c14.5,16,29.8,31.4,45.6,46.1c13.2,12.2,27.4,10.6,39.8-1.8
		c12.4-12.4,13.9-26.6,1.7-39.8c-14.1-15.3-29-29.8-44.1-44C719.6,675.6,712.8,673.6,707.9,671z M527.9,174.6
		c0-10.8,1.1-21.8-0.2-32.4c-2.2-17.2-12.6-26.8-30.4-26.5c-16.6,0.3-27.2,9.9-28.4,25.8c-1.6,20.7-1.3,41.7-0.2,62.4
		c0.9,17.5,13.4,28.5,29.2,28.8c15.9,0.3,27.8-10.9,29.9-28.1C528.9,194.8,527.9,184.6,527.9,174.6z M176.6,525.2
		c9.2,0,18.3,0.2,27.5-0.1c19-0.6,30.9-12.6,31.3-29.3c0.3-16.9-11.6-29.4-30.4-30.1c-19.1-0.7-38.3-0.8-57.5,0
		c-18.6,0.9-29.3,11.5-29,30.4c0.3,17.6,10.7,27.4,28.1,28.8C156.6,525.8,166.7,525.2,176.6,525.2z M818.9,525.1
		c10.8,0,21.8,1.1,32.4-0.2c17.2-2.2,26.8-12.6,26.5-30.4c-0.3-16.6-9.9-27.2-25.8-28.4c-20.7-1.6-41.7-1.3-62.4-0.2
		c-17.5,0.9-28.5,13.4-28.8,29.2c-0.3,15.9,10.9,27.8,28.1,29.9C798.8,526.1,808.9,525.1,818.9,525.1z M528,817.2
		c0-9.2,0.2-18.3,0-27.5c-0.4-19-12.4-31-29.1-31.5c-16.9-0.5-29.5,11.4-30.3,30.1c-0.8,20-1.2,40,0.2,59.9
		c1.3,17.2,12.2,27.1,29.9,26.8c17.7-0.3,27.5-10.5,29.1-27.9C528.7,837.2,528,827.2,528,817.2z"/>
	<path d="M496.7,700.3c-113.5-0.2-203.8-92.5-203.4-207.7c0.4-111.9,92.8-202.4,206.4-202.2c113.5,0.2,203.8,92.5,203.4,207.7
		C702.7,610,610.3,700.5,496.7,700.3z M353.1,494.7c-0.1,81.6,63.7,145.7,145.1,145.7c80.1,0,144.8-63.8,145.1-143.2
		c0.3-82.2-62.9-146.8-143.8-147C417.6,350.1,353.2,413.6,353.1,494.7z"/>
	<path d="M292,319.4c-8.7-0.7-16.1-4.4-22.2-10.4c-13.7-13.4-27.4-26.7-40.5-40.6c-13.1-13.8-12.9-28.4,0.6-41.7
		c12.5-12.4,26.7-13.5,39.8-1.3c15.2,14.1,30,28.9,44,44.2c7.5,8.2,11.1,18,5.1,29.7C313,310.7,303.8,316.5,292,319.4z"/>
	<path d="M744.7,216.6c22.7,1,39,26.8,27.7,43.5c-14.4,21.4-33.5,39.1-54.1,54.6c-12.1,9.2-24.2,3.9-33.6-5.6
		c-8.5-8.5-15.3-19.3-7.2-31.2c15.4-22.8,35.2-41.7,57.5-57.9C738.2,217.9,742.6,217.3,744.7,216.6z"/>
	<path d="M251.8,774.1c-23.8-1-39.6-28.3-26.7-45.6c14.8-20,32.8-37.6,52.8-52.5c12.2-9,24.1-3.9,33.6,5.4
		c9.4,9.3,15.4,21.1,6.4,33.4c-15.2,20.9-34,38.6-54.2,54.6C260.1,772.4,254.6,773.1,251.8,774.1z"/>
	<path d="M707.9,672c8.1,0,11.7,3.6,16.3,7.9c15.2,14.2,30.1,28.8,44.1,44c12.2,13.2,10.7,27.4-1.7,39.8
		c-12.4,12.4-26.6,14-39.8,1.8c-15.8-14.7-31.1-30.1-45.6-46.1c-7.7-8.5-9.3-19-2.8-30C684.9,678.6,691,674,707.9,672z"/>
	<path d="M527.9,174.6c0,10,1,20.1-0.2,30c-2.1,17.2-14,28.3-29.9,28.1c-15.8-0.3-28.2-11.3-29.2-28.8c-1.1-20.8-1.4-41.7,0.2-62.4
		c1.3-15.9,11.9-25.5,28.4-25.8c17.7-0.3,28.2,9.3,30.4,26.5C529,152.9,527.9,163.8,527.9,174.6z"/>
	<path d="M176.6,525.2c-10,0-20,0.6-30-0.2c-17.4-1.4-27.8-11.2-28.1-28.8c-0.3-18.9,10.3-29.6,29-30.4c19.1-0.9,38.3-0.8,57.5,0
		c18.8,0.7,30.7,13.2,30.4,30.1c-0.3,16.7-12.3,28.7-31.3,29.3C195,525.5,185.8,525.2,176.6,525.2z"/>
	<path d="M818.9,525.1c-10,0-20.1,1-30-0.2c-17.2-2.1-28.3-14-28.1-29.9c0.3-15.8,11.3-28.2,28.8-29.2c20.8-1.1,41.7-1.4,62.4,0.2
		c15.9,1.3,25.5,11.8,25.8,28.4c0.3,17.7-9.3,28.2-26.5,30.4C840.7,526.2,829.7,525.1,818.9,525.1z"/>
	<path d="M528,817.2c0,10,0.7,20.1-0.2,30c-1.6,17.3-11.4,27.5-29.1,27.9c-17.7,0.3-28.7-9.6-29.9-26.8c-1.4-19.9-1.1-40-0.2-59.9
		c0.8-18.7,13.4-30.6,30.3-30.1c16.7,0.5,28.7,12.5,29.1,31.5C528.2,798.9,528,808,528,817.2z"/>
	<path display="none" fill="#FEFEFE" d="M353.1,494.7c0.1-81.1,64.5-144.6,146.3-144.4c80.9,0.2,144.1,64.8,143.8,147
		c-0.3,79.4-64.9,143.2-145.1,143.2C416.8,640.4,353,576.4,353.1,494.7z"/>
</g>
<g display="none">
	<path fill="#FEFEFE" d="M999,1000c-333.8,0-638.4,0-971.5,0c0-333.2-28-666.4-28-1000C332.2,0,665.4,0,999,0
		C999,332.7,999,665.9,999,1000z M477.7,169.6c-85,0-169.9,0.2-254.9-0.2c-20.8-0.1-36.7,5.1-38.6,28.7c-1.6,19.8,12.6,31.1,39,31.2
		c169.1,0.2,338.2,0.1,507.3,0c20.1,0,37.1-5.1,38.6-29.2c1.2-20.3-12.2-30.5-39-30.5C646,169.5,561.9,169.6,477.7,169.6z
		 M475.6,344.9c85,0,169.9-0.2,254.9,0.2c20.8,0.1,36.7-5,38.6-28.6c1.6-19.8-12.6-31.3-38.9-31.3c-169.1-0.2-338.2-0.1-507.3,0
		c-20,0-37.2,5-38.6,29.2c-1.2,20.3,12.1,30.5,39,30.6C307.4,345,391.5,344.9,475.6,344.9z M476.7,404.5c-84.1,0-168.3-0.1-252.4,0
		c-27.5,0-40.1,9.4-40.2,29.5c-0.1,19.6,13.3,30.2,40.2,30.2c168.3,0.1,336.5,0.1,504.8,0c26.8,0,40.3-10.7,40.2-30.3
		c-0.2-20.1-12.7-29.4-40.2-29.5C644.9,404.5,560.8,404.5,476.7,404.5z M475.6,579.8c85,0,169.9-0.2,254.9,0.2
		c20.8,0.1,36.7-5,38.7-28.6c1.6-19.8-12.5-31.3-38.9-31.3c-169.1-0.2-338.2-0.1-507.3-0.1c-20,0-37.1,5-38.7,29.1
		c-1.3,20.3,12.1,30.6,38.9,30.7C307.3,579.9,391.4,579.8,475.6,579.8z M532.9,904.9c18.8-0.5,35.1-17.3,34.3-35.4
		c-0.9-18.3-18.5-34.8-36.6-34.1c-17.9,0.7-35,18.9-34.3,36.4C497.1,890.3,513.8,905.4,532.9,904.9z M735.7,835.4
		c-17.9,0.6-35,18.9-34.3,36.4c0.8,18.5,17.5,33.6,36.6,33.1c18.8-0.5,35.1-17.3,34.3-35.4C771.4,851.2,753.8,834.8,735.7,835.4z
		 M599.5,767.8c0.1,18.1,16.8,35.9,34.1,36.3c18.3,0.4,36.6-18.5,35.2-37.5c-1.6-20.4-13.5-31.2-34-31.8
		C614.3,734.2,599.5,748.3,599.5,767.8z M429.2,735.3c0.4,17.7,18.9,34.9,36.3,34c16.5-0.9,33.4-18.8,33.1-35.1
		c-0.3-17.8-18.1-34.8-35.9-34.3C442.2,700.4,428.7,714.7,429.2,735.3z M839.3,734.4c0-20.5-13.9-34.4-34.4-34.5
		c-17.8,0-35.3,17.7-35,35.3c0.3,16.5,17.6,33.8,34.1,34.1C821.7,769.6,839.4,752.1,839.3,734.4z"/>
	<path display="inline" d="M730.1,169.6c26.8,0,40.2,10.3,39,30.5c-1.4,24.1-18.5,29.2-38.6,29.2c-169.1,0.1-338.2,0.1-507.3,0
		c-26.4,0-40.6-11.4-39-31.2c1.9-23.6,17.7-28.8,38.6-28.7C307.8,169.8,646,169.5,730.1,169.6z"/>
	<path display="inline" d="M223.2,344.9c-26.9,0-40.2-10.3-39-30.6c1.5-24.1,18.7-29.2,38.6-29.2c169.1-0.1,338.2-0.1,507.3,0
		c26.4,0,40.5,11.5,38.9,31.3c-1.9,23.7-17.9,28.7-38.6,28.6C645.6,344.7,307.4,345,223.2,344.9z"/>
	<path display="inline" d="M729.1,404.5c27.5,0,40.1,9.4,40.2,29.5c0.1,19.6-13.3,30.3-40.2,30.3c-168.3,0.1-336.5,0.1-504.8,0
		c-26.9,0-40.3-10.6-40.2-30.2c0.1-20.1,12.7-29.5,40.2-29.5C308.4,404.5,644.9,404.5,729.1,404.5z"/>
	<path display="inline" d="M223.2,579.8c-26.8,0-40.2-10.4-38.9-30.7c1.6-24.1,18.7-29.1,38.7-29.1c169.1-0.1,338.2-0.1,507.3,0.1
		c26.3,0,40.5,11.5,38.9,31.3c-2,23.6-17.9,28.7-38.7,28.6C645.5,579.6,307.3,579.9,223.2,579.8z"/>
	<path display="inline" d="M532.9,904.9c-19.1,0.5-35.8-14.6-36.6-33.1c-0.7-17.6,16.4-35.8,34.3-36.4c18.1-0.7,35.8,15.8,36.6,34.1
		C568.1,887.6,551.7,904.5,532.9,904.9z"/>
	<path display="inline" d="M735.7,835.4c18.1-0.7,35.7,15.8,36.6,34.1c0.8,18.1-15.5,34.9-34.3,35.4c-19.1,0.5-35.8-14.6-36.6-33.1
		C700.7,854.3,717.8,836.1,735.7,835.4z"/>
	<path display="inline" d="M599.5,767.8c-0.1-19.5,14.8-33.6,35.4-33c20.5,0.6,32.4,11.4,34,31.8c1.5,19-16.9,37.9-35.2,37.5
		C616.4,803.7,599.6,785.9,599.5,767.8z"/>
	<path display="inline" d="M429.2,735.3c-0.5-20.6,13-34.9,33.5-35.4c17.8-0.5,35.6,16.5,35.9,34.3c0.3,16.3-16.6,34.1-33.1,35.1
		C448.1,770.3,429.7,753,429.2,735.3z"/>
	<path display="inline" d="M839.3,734.4c0,17.8-17.7,35.3-35.3,34.9c-16.5-0.3-33.8-17.6-34.1-34.1c-0.3-17.6,17.2-35.3,35-35.3
		C825.4,699.9,839.3,713.8,839.3,734.4z"/>
</g>
<g display="none">
	<path fill="#FDFDFD" d="M4.3,1000c0-333.1,0-666.3,0-1000c332.6,0,665.6,0,999.4,0c0,332.9,0,666.5,0,1000
		C671.2,1000,337.9,1000,4.3,1000z M403,415.9c13.7-1.3,23.7-1.3,33.3-3.4c9.1-2,17.7-6.2,17.8-17.8c0.1-11.7-8.5-16.4-17.6-17.8
		c-12.2-1.9-25-2.6-37.3-1.4c-16.6,1.6-26.9-4.1-32.6-19.8c-2.8-7.6-7.8-14.4-11.6-21.1c36.6-52.7,61-51.4,91.5,3.9
		c1.6,2.9,3,6,4.8,8.7c6.1,8.9,14,15.8,25,9.8c11-5.9,9.2-16.4,5.8-26.5c-3.3-9.7-12.7-17.4-10.2-31.5c8.8,0,17,0.2,25.2,0
		c12.6-0.4,21.2-6.3,21.3-19.4c0.1-13.7-10.5-14.5-21.1-15.5c-9.2-0.9-20.1,4.5-27.5-5.3c0.2-10.4,8.7-16.3,11.8-24.9
		c3.6-9.9,6.3-20.2-4.1-26.9c-10.5-6.8-19.5-1.1-25.6,7.8c-6.6,9.6-12,19.9-17.6,30.1c-9.4,17-38.1,26.6-55.2,18.1
		c-13.7-6.8-21.1-39.8-14.2-55.9c7.7-17.9,19.7-25.3,39.1-23.1c10.7,1.3,21.6,0.2,32.5,0.2c10.8-0.1,17.5-4.8,17.8-16.3
		c0.3-12.4-6.1-18.4-18.4-18.3c-11.1,0-22.1,0-36.8,0c7.2-12.6,11.8-20.3,16.2-28.2c4.8-8.8,6.9-18.5-2.7-24.4
		c-10.4-6.4-20.3-4.3-28,6.8c-5.4,7.8-8.2,18-17.9,23.1c-6.1-9.5-11.9-18.6-17.7-27.7c-6.6-10.3-15.2-12.7-25.4-5.8
		c-9,6.1-10.7,14.3-4.9,23.8c5.6,9.3,9.8,19.6,16.5,27.9c15,18.3,4.1,33.2-3.1,50.2c-7.5,17.7-19.8,9.7-31.1,10
		c-6.4,0.1-12.8,1.6-16.6,2.1c-28.2-25.4-28-50.8-5.7-77.2c2.7-3.1,4.5-7,6.7-10.5c6.4-10.2,4.6-19.2-4.7-26.3
		c-11.3-8.5-18.1-0.1-25.2,7.3c-7.5,7.8-8.4,20.1-19.8,27.5c-5.8-9.1-10.9-18.4-17.2-26.8c-5.6-7.5-12.5-14.4-23-7.3
		c-9.9,6.7-11.5,15-5.9,25.8c4.5,8.6,11.5,16.4,11.5,28.1c-3.3,0.5-6.4,1.1-9.5,1.5c-15.4,1.8-40.1-6.7-40,17
		c0.1,25.8,26.2,18.8,41.5,17c27.2-3.2,41.4,8.7,51,31.8c5.9,14.3-9.1,47-24.5,48.5c-21.2,2.1-42.1,2.7-50.7-23.9
		c-2.7-8.5-9.6-15.5-13.8-23.6c-6.1-11.9-15.8-15.3-27-10.1c-11.8,5.6-9.7,16-4.7,25.8c4.8,9.4,9.8,18.6,15.1,28.5
		c-12.2,6.7-24.1,2-35.2,4c-9,1.6-16.8,6.2-16.4,15.7c0.3,9.5,5.6,17.9,16.7,18.5c10.6,0.6,21.3,0.1,32,0.1
		c0.8,14.4-9.6,21.2-13.5,31.1c-4.3,11-2.7,19.8,7.1,26.1c10.4,6.7,17.4,0,22.8-7.9c6.1-8.9,11.6-18.3,16.8-27.7
		c11-19.9,31.7-29.4,53.8-20.3c15.7,6.5,25.3,22.8,23.9,39.2c-2,22.6-21.3,35.5-45.1,35.9c-12.4,0.2-25-2.1-37.2,2.3
		c-8.4,3.1-14.8,7.7-14.4,17.9c0.4,9,6.4,14,13.9,15.5c12,2.5,24.4,3.2,38.2,4.8c-5.1,10.1-9.9,19.5-14.6,29
		c-4.4,8.9-1.6,17.3,5.8,22c8.4,5.3,17.9,4.2,24.3-4.7c6.2-8.6,11.7-17.7,19.3-29.4c7.1,10.7,12.2,19.1,17.9,27
		c6.6,9.1,14.3,17.9,26.5,9.4c11.1-7.8,9.2-18.4,3.2-28.8c-7-12.3-14.8-24.2-20.8-37c-8.3-17.5,11-47.5,30.3-49.2
		c18.6-1.7,32.8,1.6,43.4,20.3c10.1,17.9,6.4,30.9-4.3,45.6c-5.8,8-9.6,17.5-14.3,26.3c-5.4,10.1-1.5,17.6,7,23.4
		c9.1,6.3,15.2,0.7,21.6-5.4c8.5-8,9.2-21.5,19.9-27.9c11.2,5.3,13.2,17,19.4,25.6c6.4,9,15.7,9.5,24.6,5.4
		c9.5-4.3,9.5-13.1,6.2-21.5C413.5,437,408.8,428.3,403,415.9z M834.3,557.4c15.2-6.9,38.3,3.3,39.1-18.2
		c0.9-26.2-28.8-6.5-38.1-19.9c-0.7-9.9,7-15.3,10.5-22.6c4.3-9,3.4-16-4.5-22c-9.9-7.4-15.7,0.4-20.6,6.7
		c-6,7.9-10.9,16.7-15.6,25.5C794,528,774.4,522.2,759,518.2c-10.9-2.8-21.2-17-17.8-29.3c4.5-16.3,12.4-33.5,35.9-30.2
		c9,1.3,18.3,0.5,27.5,0c10.3-0.6,18.2-6.1,18.5-16.6c0.3-10.1-9.1-12.6-17-15.7c-8-3.2-18.5,3.2-25.1-6.1
		c2.5-12.9,22.8-26.6,5.1-37.3c-23-13.8-23.4,18.7-38.1,25.6c-5-7.8-8.8-15.3-14-21.6c-5-6.1-10.2-14.8-20.3-8.1
		c-9.2,6.1-10.4,14.3-4.5,23.7c4.8,7.8,8.7,16.2,14.1,23.5c13.5,18.5,1.8,32.8-9.7,43.8c-10.7,10.2-28.4,9.7-38.7,0.3
		c-11.8-10.8-21.8-26.1-8.9-44.1c4.8-6.7,8.6-14.2,13.1-21.3c6.1-9.7,7.6-19.5-3.6-25.8c-11.8-6.6-17.9,2.1-23.4,11.1
		c-3.7,6-4.5,14.5-13,17.6c-12.4-8.2-13.4-37.7-35.5-25c-19.5,11.1,4.4,25.5,4.4,38.8c-7.4,6.7-16.5,2-24.2,4.8
		c-8.6,3.1-19.2,5.6-17.4,17.5c1.5,10.3,9.9,14.8,20.1,15c8.3,0.1,16.9,1.3,25-0.1c24.3-4.4,31.9,14.9,35.7,30
		c3.2,12.7-8.1,28.6-20.9,33.5c-15.5,6-32.9,5.5-41.9-14.8c-4.4-9.8-10.6-18.9-17.1-27.5c-4.4-5.7-10.2-12.2-18.8-5.7
		c-7.7,5.7-9.5,12.5-5.4,21.8c3.5,8,13,13.6,10.3,24.2c-10.7,10.9-37.4-6.4-37.6,18.2c-0.2,23.5,25.9,9.9,37,19.1
		c0.7,8.9-6.2,13.8-9.3,20.4c-4.3,9-3.4,16,4.4,22c9.9,7.5,15.5-0.4,20.5-6.7c5.7-7.1,11.9-14.5,15-22.9
		c8.9-23.5,28.8-18.5,44.3-14.8c12.3,3,23.1,18.7,19.6,30.8c-4.7,16.2-11.8,36.1-36.8,33.1c-9-1.1-18.3-0.1-27.5-0.1
		c-8.1,0.1-15.7,2.2-16.8,11.4c-1.2,10,6.1,15,14.5,17.6c8.6,2.7,18.3-1.8,26.4,3.4c5.4,14.8-23.9,26.6-5.4,39.8
		c22.8,16.3,24-18.3,40-21.7c2.5,2.9,4.9,5.2,6.9,7.8c6.9,8.8,8.3,27.9,25.9,18.3c18.5-10,4.5-22.2-0.7-33.6
		c-5.1-11.1-17.1-21-12.9-33.9c3.6-11,6.4-26.6,21.2-28.3c12.1-1.4,26.3-6.3,36.1,8.8c8.6,13.3,15.8,25.3,4.7,40.7
		c-5.8,8.1-10.2,17.1-15.1,25.9c-5.3,9.5-0.4,16.1,7.2,20.9c8.1,5.2,14,1.1,18.9-5.8c5-7.1,5.7-17.8,18-20.6
		c11,7.5,13.2,34.7,34,22.6c22.6-13.2-10-26.2-3.3-41c7.3-4.5,16-1.2,24-2.8c8.8-1.7,16.6-6.1,16-16c-0.7-9.6-7.9-13.8-17.7-13.5
		c-8.3,0.3-16.8-1-25,0.2c-25,3.5-32.4-15.9-37.5-32.3c-3.7-12.1,4.7-28.6,17.9-31.6c16.5-3.8,37.2-8.8,46.2,15.6
		c2.3,6.1,6.9,11.3,10.3,17.1c5.1,8.4,9,20.2,22.1,13.1c12.1-6.5,12.5-16.2,4-27C839.2,570.3,837.6,564.5,834.3,557.4z M401.1,591.9
		c-1.1-12.8,17.8-25.5,0.4-34.4c-18-9.1-15.7,17.9-28.4,20.4c-10.2-6.9-11.6-31.2-28.5-20.4c-14.7,9.4-0.5,23.4,5.1,34.7
		c1.5,3,3.7,5.8,4.3,8.9c2.8,13.6-1.2,26.3-13.3,32c-10.2,4.8-22.2,4.3-32-6c-14.9-15.9-4.2-28.8,2.8-42.8
		c4.2-8.4,13.7-18.3,1.9-26.4c-12.6-8.7-16.8,4.2-22.3,12c-2.3,3.3-4.5,7-9.4,6.9c-8.5-6.7-12.1-25.1-25.5-18.7
		c-17.6,8.4,2,23.1-0.8,36.2c-5,0.3-9.9,0.6-14.8,0.8c-9.7,0.4-16.5,4.4-15.6,15c0.9,10.8,9.9,9.3,17.2,9.5
		c7.5,0.2,15.1-0.6,22.5,0.3c17.2,2.3,25,15.6,23.4,29.9c-1.5,13.3-8.1,26.2-27.7,25.3c-21.3-1-23.2-18.7-31.6-30.9
		c-5.4-7.9-11.7-12.5-20.8-8.1c-11.4,5.5-5.3,13.6-1.7,21c2.3,4.9,8.8,8.5,5,15.4c-9.8,5.9-29.8-4.4-30.2,14.1
		c-0.5,20.3,22,7.6,31,15.9c0,1.9,0.3,3.6-0.1,5.1c-2.7,9.9-20,19.9-4.4,29.5c15.9,9.8,20.4-7.3,26.6-17.6c1.3-2.1,2.5-4.3,3.5-6.6
		c8.3-19,26-17.6,37.8-10.5c12.3,7.4,18.8,22.6,8.3,39c-6.8,10.6-15.9,12.4-27.4,13.5c-10.8,1-29.1-8.5-30.7,10.1
		c-1.7,19.2,17.8,11.7,28.3,15.4c0.8,0.3,1.4,0.8,2.6,1.6c0,11.2-16.4,24.6-1.5,33.5c15.7,9.3,17.4-15.8,29.7-18.3
		c2.3,2.4,4.1,4.2,5.7,6c1.1,1.3,2,2.7,2.8,4.1c4.3,7.6,9.2,15.5,19.3,9.8c10-5.6,5.6-13.8,2.3-21.8c-4.6-11.3-16.5-20.7-13.4-33.8
		c2.4-10.2,8.1-20.9,21.1-22c9.8-0.8,20.1-2.5,26.5,8.7c6.8,11.8,8.3,22.6,0.4,35c-6.7,10.5-19.4,24.6-3.5,34.1
		c14.2,8.5,17.3-10.3,24.4-18.4c0.8-0.9,2.8-0.8,3.2-0.9c12.4,3.2,11.4,27.6,28.5,18.7c18.1-9.4-4.7-23.2,0.1-35.1
		c10.4-5.4,31,1.5,30.3-15c-0.9-19.7-20.8-9.6-32.5-12.1c-2.4-0.5-5,0.1-7.5-0.2c-18.3-2.3-29.7-27-19.6-42.2
		c14.4-21.6,35.1-18,50.5,8.8c5.8,10,11.5,24.1,25.7,16.5c12.3-6.6,1.5-17.4-1.3-26.3c-0.9-2.9-1.1-6.1-1.4-8.2
		c9-8.1,27.6,3.8,28.3-15.3c0.7-20.9-20.4-7.8-28.8-17.4c0.7-2.4,1.5-5.5,2.5-8.5c2.9-8.8,13.3-19.5-0.2-25.7
		c-12.8-5.9-18.7,6.4-24.1,15.9c-1.2,2.2-2.8,4.3-3.5,6.6c-5.6,18.3-20.4,18.3-34.4,15.2c-12.5-2.8-21.5-16.6-18.7-25.7
		c4-13.2,9.2-30.7,31.5-29c11.6,0.8,31.4,8.3,33.6-10.4C434.5,587.8,411.3,599.9,401.1,591.9z"/>
	<path display="inline" d="M403,415.9c5.9,12.4,10.5,21.1,14.1,30.2c3.3,8.4,3.3,17.2-6.2,21.5c-8.9,4-18.1,3.5-24.6-5.4
		c-6.2-8.6-8.2-20.3-19.4-25.6c-10.7,6.4-11.5,19.9-19.9,27.9c-6.4,6-12.5,11.7-21.6,5.4c-8.5-5.9-12.4-13.3-7-23.4
		c4.7-8.8,8.5-18.3,14.3-26.3c10.7-14.7,14.4-27.7,4.3-45.6c-10.6-18.7-24.8-22-43.4-20.3c-19.3,1.7-38.6,31.7-30.3,49.2
		c6,12.7,13.7,24.7,20.8,37c6,10.4,7.9,21.1-3.2,28.8c-12.2,8.5-20-0.3-26.5-9.4c-5.7-7.9-10.8-16.3-17.9-27
		c-7.6,11.7-13.1,20.8-19.3,29.4c-6.4,8.8-15.9,10-24.3,4.7c-7.4-4.7-10.2-13-5.8-22c4.7-9.5,9.5-19,14.6-29
		c-13.8-1.6-26.1-2.4-38.2-4.8c-7.5-1.5-13.5-6.5-13.9-15.5c-0.4-10.2,6-14.8,14.4-17.9c12.1-4.4,24.8-2.1,37.2-2.3
		c23.8-0.4,43.1-13.2,45.1-35.9c1.4-16.4-8.2-32.7-23.9-39.2c-22.1-9.1-42.8,0.4-53.8,20.3c-5.2,9.5-10.7,18.8-16.8,27.7
		c-5.4,7.9-12.4,14.7-22.8,7.9c-9.8-6.3-11.5-15.2-7.1-26.1c3.9-9.9,14.3-16.7,13.5-31.1c-10.8,0-21.4,0.5-32-0.1
		c-11.2-0.6-16.4-9-16.7-18.5c-0.3-9.5,7.5-14.1,16.4-15.7c11.1-2,23,2.7,35.2-4c-5.2-9.8-10.3-19.1-15.1-28.5
		c-5-9.7-7.1-20.1,4.7-25.8c11.1-5.3,20.9-1.9,27,10.1c4.1,8.1,11,15.2,13.8,23.6c8.6,26.6,29.5,26,50.7,23.9
		c15.4-1.5,30.4-34.2,24.5-48.5c-9.6-23.2-23.8-35.1-51-31.8c-15.3,1.8-41.4,8.8-41.5-17c-0.1-23.7,24.6-15.1,40-17
		c3.1-0.4,6.2-1,9.5-1.5c0-11.6-7-19.4-11.5-28.1c-5.6-10.8-3.9-19.1,5.9-25.8c10.6-7.2,17.4-0.2,23,7.3
		c6.3,8.4,11.4,17.7,17.2,26.8c11.4-7.4,12.2-19.8,19.8-27.5c7.1-7.4,14-15.7,25.2-7.3c9.4,7.1,11.2,16.1,4.7,26.3
		c-2.2,3.5-4,7.4-6.7,10.5c-22.3,26.4-22.5,51.8,5.7,77.2c3.9-0.5,10.2-2,16.6-2.1c11.4-0.2,23.6,7.7,31.1-10
		c7.3-17,18.1-31.9,3.1-50.2c-6.7-8.3-11-18.6-16.5-27.9c-5.7-9.6-4-17.7,4.9-23.8c10.2-6.9,18.8-4.5,25.4,5.8
		c5.8,9.1,11.6,18.2,17.7,27.7c9.7-5.1,12.5-15.3,17.9-23.1c7.7-11.1,17.6-13.2,28-6.8c9.6,5.9,7.5,15.7,2.7,24.4
		c-4.3,7.9-8.9,15.6-16.2,28.2c14.7,0,25.7,0,36.8,0c12.3,0,18.7,5.9,18.4,18.3c-0.2,11.5-7,16.2-17.8,16.3
		c-10.8,0.1-21.8,1.1-32.5-0.2c-19.4-2.3-31.3,5.1-39.1,23.1c-6.9,16,0.4,49.1,14.2,55.9c17.1,8.4,45.8-1.1,55.2-18.1
		c5.6-10.2,11.1-20.5,17.6-30.1c6.1-8.9,15.2-14.6,25.6-7.8c10.4,6.7,7.7,17,4.1,26.9c-3.1,8.5-11.6,14.4-11.8,24.9
		c7.5,9.7,18.3,4.4,27.5,5.3c10.6,1,21.2,1.9,21.1,15.5c-0.1,13.1-8.7,19-21.3,19.4c-8.2,0.2-16.4,0-25.2,0
		c-2.5,14.1,6.9,21.8,10.2,31.5c3.4,10,5.2,20.5-5.8,26.5c-11,6-18.9-0.9-25-9.8c-1.9-2.7-3.2-5.8-4.8-8.7
		c-30.5-55.3-54.9-56.6-91.5-3.9c3.8,6.7,8.8,13.5,11.6,21.1c5.8,15.7,16,21.5,32.6,19.8c12.3-1.2,25-0.5,37.3,1.4
		c9.1,1.4,17.7,6.1,17.6,17.8c-0.1,11.6-8.7,15.8-17.8,17.8C426.7,414.6,416.7,414.6,403,415.9z M339.7,279.1
		c-0.3-22.3-18.1-39.8-39.5-38.6c-21.9,1.2-36.8,18.6-36.3,42.3c0.4,20.3,17.4,36.5,38.8,36.9C324.1,320.1,340,302.6,339.7,279.1z"
		/>
	<path display="inline" d="M834.3,557.4c3.3,7.1,4.9,12.8,8.3,17.2c8.5,10.8,8.1,20.5-4,27c-13.1,7.1-17.1-4.7-22.1-13.1
		c-3.4-5.7-8-10.9-10.3-17.1c-9-24.4-29.7-19.4-46.2-15.6c-13.2,3-21.6,19.5-17.9,31.6c5,16.3,12.5,35.8,37.5,32.3
		c8.2-1.2,16.7,0.1,25-0.2c9.8-0.3,17,3.8,17.7,13.5c0.7,9.8-7.1,14.3-16,16c-8,1.6-16.7-1.7-24,2.8c-6.7,14.8,25.9,27.8,3.3,41
		c-20.8,12.2-23-15.1-34-22.6c-12.2,2.8-12.9,13.5-18,20.6c-4.9,6.9-10.8,11-18.9,5.8c-7.6-4.8-12.5-11.4-7.2-20.9
		c4.8-8.7,9.3-17.8,15.1-25.9c11.1-15.4,3.9-27.4-4.7-40.7c-9.8-15-24-10.1-36.1-8.8c-14.7,1.7-17.6,17.2-21.2,28.3
		c-4.2,12.9,7.8,22.8,12.9,33.9c5.2,11.4,19.2,23.6,0.7,33.6c-17.7,9.6-19-9.5-25.9-18.3c-2-2.6-4.3-4.9-6.9-7.8
		c-16,3.4-17.2,38-40,21.7c-18.5-13.2,10.7-25,5.4-39.8c-8.1-5.2-17.8-0.7-26.4-3.4c-8.4-2.6-15.7-7.6-14.5-17.6
		c1.1-9.2,8.6-11.3,16.8-11.4c9.2-0.1,18.4-1,27.5,0.1c25,3,32.1-16.9,36.8-33.1c3.5-12.1-7.3-27.9-19.6-30.8
		c-15.4-3.7-35.3-8.8-44.3,14.8c-3.2,8.3-9.3,15.8-15,22.9c-5.1,6.3-10.7,14.2-20.5,6.7c-7.8-6-8.7-13-4.4-22
		c3.1-6.5,10-11.5,9.3-20.4c-11.1-9.2-37.1,4.4-37-19.1c0.2-24.6,26.9-7.3,37.6-18.2c2.7-10.6-6.8-16.3-10.3-24.2
		c-4.2-9.3-2.3-16.1,5.4-21.8c8.7-6.4,14.5,0,18.8,5.7c6.5,8.6,12.7,17.7,17.1,27.5c9.1,20.2,26.4,20.8,41.9,14.8
		c12.8-5,24.1-20.8,20.9-33.5c-3.8-15.1-11.4-34.4-35.7-30c-8.1,1.5-16.6,0.3-25,0.1c-10.3-0.2-18.6-4.7-20.1-15
		c-1.7-12,8.8-14.4,17.4-17.5c7.6-2.7,16.7,2,24.2-4.8c0.1-13.3-23.8-27.7-4.4-38.8c22.1-12.6,23.1,16.8,35.5,25
		c8.5-3.1,9.2-11.6,13-17.6c5.6-9,11.6-17.7,23.4-11.1c11.2,6.3,9.7,16.1,3.6,25.8c-4.4,7.1-8.2,14.5-13.1,21.3
		c-12.9,18-2.9,33.4,8.9,44.1c10.3,9.4,28,9.9,38.7-0.3c11.6-11,23.3-25.3,9.7-43.8c-5.4-7.3-9.3-15.8-14.1-23.5
		c-5.9-9.4-4.7-17.6,4.5-23.7c10.2-6.7,15.4,2,20.3,8.1c5.2,6.4,9,13.8,14,21.6c14.7-6.9,15.1-39.5,38.1-25.6
		c17.7,10.7-2.5,24.4-5.1,37.3c6.6,9.3,17.1,2.9,25.1,6.1c7.9,3.1,17.3,5.6,17,15.7c-0.3,10.5-8.2,16-18.5,16.6
		c-9.1,0.6-18.5,1.3-27.5,0c-23.5-3.3-31.5,13.8-35.9,30.2c-3.4,12.3,7,26.5,17.8,29.3c15.5,4,35,9.7,46.1-11.3
		c4.6-8.8,9.6-17.6,15.6-25.5c4.9-6.3,10.7-14.1,20.6-6.7c7.9,5.9,8.7,13,4.5,22c-3.5,7.3-11.2,12.8-10.5,22.6
		c9.2,13.4,39-6.3,38.1,19.9C872.6,560.7,849.5,550.6,834.3,557.4z M700.1,569.8c14.6-1.7,25.5-13.5,27.2-31.7
		c1.6-17.3-16-33.6-33-33.5c-16.5,0-34.3,17.4-34,33.2C660.6,553.8,678.6,570.4,700.1,569.8z"/>
	<path display="inline" d="M401.1,591.9c10.2,7.9,33.4-4.1,31,16.9c-2.2,18.7-22,11.3-33.6,10.4c-22.3-1.6-27.5,15.8-31.5,29
		c-2.8,9.1,6.2,22.9,18.7,25.7c14.1,3.2,28.8,3.2,34.4-15.2c0.7-2.3,2.3-4.4,3.5-6.6c5.4-9.5,11.3-21.8,24.1-15.9
		c13.5,6.2,3.2,16.9,0.2,25.7c-1,3-1.8,6.1-2.5,8.5c8.4,9.6,29.5-3.5,28.8,17.4c-0.7,19.1-19.3,7.2-28.3,15.3
		c0.4,2.2,0.5,5.3,1.4,8.2c2.8,8.9,13.6,19.7,1.3,26.3c-14.2,7.6-19.9-6.5-25.7-16.5c-15.4-26.7-36.1-30.4-50.5-8.8
		c-10.1,15.2,1.3,39.9,19.6,42.2c2.5,0.3,5.1-0.3,7.5,0.2c11.7,2.5,31.6-7.6,32.5,12.1c0.7,16.5-19.9,9.6-30.3,15
		c-4.9,11.9,18,25.7-0.1,35.1c-17,8.9-16.1-15.4-28.5-18.7c-0.4,0.1-2.4,0-3.2,0.9c-7,8.1-10.2,26.9-24.4,18.4
		c-15.9-9.5-3.1-23.6,3.5-34.1c7.9-12.4,6.4-23.2-0.4-35c-6.4-11.2-16.8-9.5-26.5-8.7c-13,1.1-18.7,11.8-21.1,22
		c-3.1,13.1,8.7,22.5,13.4,33.8c3.3,8,7.7,16.2-2.3,21.8c-10.1,5.7-15-2.2-19.3-9.8c-0.8-1.4-1.7-2.9-2.8-4.1
		c-1.6-1.9-3.4-3.6-5.7-6c-12.3,2.5-14,27.6-29.7,18.3c-14.9-8.9,1.5-22.3,1.5-33.5c-1.2-0.7-1.9-1.3-2.6-1.6
		c-10.5-3.7-30,3.8-28.3-15.4c1.7-18.6,19.9-9.1,30.7-10.1c11.5-1.1,20.5-2.8,27.4-13.5c10.6-16.4,4.1-31.7-8.3-39
		c-11.8-7.1-29.5-8.4-37.8,10.5c-1,2.3-2.2,4.5-3.5,6.6c-6.2,10.2-10.7,27.3-26.6,17.6c-15.6-9.6,1.7-19.6,4.4-29.5
		c0.4-1.5,0.1-3.2,0.1-5.1c-9-8.3-31.5,4.4-31-15.9c0.5-18.4,20.4-8.2,30.2-14.1c3.8-6.9-2.6-10.5-5-15.3c-3.6-7.4-9.6-15.5,1.7-21
		c9.1-4.4,15.4,0.2,20.8,8.1c8.4,12.2,10.2,29.9,31.6,30.9c19.6,0.9,26.3-12,27.7-25.3c1.6-14.3-6.2-27.6-23.4-29.9
		c-7.4-1-15-0.1-22.5-0.3c-7.3-0.2-16.3,1.3-17.2-9.5c-0.9-10.6,6-14.6,15.6-15c4.9-0.2,9.8-0.5,14.8-0.8
		c2.8-13.1-16.8-27.8,0.8-36.2c13.4-6.4,17,12.1,25.5,18.7c4.9,0.1,7.1-3.6,9.4-6.9c5.6-7.8,9.7-20.8,22.3-12
		c11.8,8.1,2.3,18-1.9,26.4c-7,14-17.7,26.9-2.8,42.8c9.7,10.3,21.8,10.8,32,6c12.1-5.7,16.1-18.4,13.3-32c-0.6-3.1-2.8-5.9-4.3-8.9
		c-5.6-11.3-19.8-25.3-5.1-34.7c16.9-10.8,18.3,13.6,28.5,20.4c12.7-2.4,10.4-29.5,28.4-20.4C418.9,566.4,400,579.2,401.1,591.9z
		 M354.6,689c-1.1-17.8-9.2-28.1-26.1-28.9c-17.6-0.9-26.6,11.2-27.7,26.1c-1.2,16.3,10.5,26.8,26.2,27.8
		C343.8,715.1,351.8,703.3,354.6,689z"/>
	<path fill="#FDFDFD" d="M339.7,279.1c0.3,23.5-15.6,41-37,40.6c-21.3-0.4-38.3-16.6-38.8-36.9c-0.5-23.7,14.4-41.1,36.3-42.3
		C321.6,239.4,339.4,256.8,339.7,279.1z"/>
	<path fill="#FDFDFD" d="M700.1,569.8c-21.4,0.6-39.5-16-39.8-32c-0.3-15.9,17.5-33.2,34-33.2c17,0,34.6,16.2,33,33.5
		C725.6,556.3,714.7,568.1,700.1,569.8z"/>
	<path fill="#FDFDFD" d="M354.6,689c-2.9,14.3-10.9,26.1-27.6,25c-15.7-1-27.4-11.5-26.2-27.8c1.1-14.9,10.1-27,27.7-26.1
		C345.4,660.9,353.5,671.2,354.6,689z"/>
</g>
</svg>
