<?xml version="1.0" encoding="utf-8"?>
<!-- Generator: Adobe Illustrator 20.0.0, SVG Export Plug-In . SVG Version: 6.00 Build 0)  -->
<svg version="1.1" id="Capa_1" xmlns="http://www.w3.org/2000/svg" xmlns:xlink="http://www.w3.org/1999/xlink" x="0px" y="0px"
	 viewBox="0 0 1000 1000" style="enable-background:new 0 0 1000 1000;" xml:space="preserve">
<g>
	<g>
		<path d="M708.9,463.3c4.5,0,9,0,13.5,0C717.2,463.2,712.6,463.2,708.9,463.3z"/>
	</g>
	<g>
		<path d="M766.1,463.4c-15-0.1-29.3-0.1-43.7-0.1c15.3,0.2,36,1.3,53.8,2.2c6,0.3,11.6,0.6,16.3,0.8
			C784.7,463.6,775.1,463.5,766.1,463.4z M82.6,597.9L82.6,597.9c0,0.2,0.1,0.3,0.1,0.4C82.6,598.2,82.6,598,82.6,597.9z"/>
		<path d="M805.6,466.8c-2.6,0-7.2-0.2-13-0.5c-4.8-0.2-10.4-0.5-16.3-0.8c-17.8-0.9-38.5-2-53.8-2.2c-4.5,0-9,0-13.5,0
			c0,0,0,0-0.1,0c-16.8,0.1-33.7,0.2-51.8,0.4c-52.4,0.5-117.7,1-220.1,0.5c-19,0-36.9-0.1-54-0.2c-205.8-0.9-275.1-1.2-299,22.5
			c-7,6.9-10.2,15.7-10.2,27.6c0,27,2.7,53.5,7.9,79.2c0,0.2,0.1,0.4,0.1,0.6c0,0.2,0.1,0.4,0.1,0.6v0c0.2,1,0.4,1.9,0.6,2.9
			c0,0.1,0,0.2,0.1,0.4c0,0.2,0.1,0.3,0.1,0.4c0.1,0.3,0.1,0.5,0.2,0.8c0.1,0.3,0.1,0.5,0.2,0.8l0.4,1.8c0.3,1.5,0.7,3,1,4.5
			c15.5,64.9,47.4,124.3,93.5,172.6c68,71.2,160,110.4,259,110.4c70.4,0,138.4-18.3,196.5-53c55.1-32.9,100.3-79.5,130.9-135.2
			c13.1,4.8,27,7.3,41.2,7.3c66.6,0,120.8-54.2,120.8-120.6C926.3,521.1,872.2,466.9,805.6,466.8z M89.6,514
			c0-7.5,1.7-12.4,5.5-16.2c15.5-15.4,69.8-18.1,190.4-18.1c28.6,0,60.9,0.2,97.3,0.2c17,0,35,0.1,54,0.2
			c102.5,0.4,167.8-0.1,220.3-0.5c16.5-0.1,32-0.2,47.2-0.3l0,0.3c39.3,1.1,65.3,1.8,77.7,8.4c6.3,3.2,10.2,8.2,11.6,22.4
			c-0.5,11.6-1.5,24.1-3,37.1H91C90.1,536.4,89.6,525.3,89.6,514z M96.5,586L93,563.6h695.5c-1.2,8.2-2.6,16.5-4.2,24.8l-687,1.8
			C96.9,588.2,96.6,586.5,96.5,586z M625.1,822.4c-55.7,33.2-120.8,50.7-188.3,50.7c-94.6,0-182.4-37.5-247.4-105.5
			c-43.3-45.2-73.4-100.7-88.6-161.4l680.2-1.8c-6.9,31.4-16.4,61.4-28,83.4C723.8,743.4,679.6,790,625.1,822.4z M805.5,692.3
			c-10.9,0-21.5-1.6-31.7-4.9c13.3-27.2,23-56.6,29-87.8c0.6-2.8,1.1-5.7,1.6-8.6c3.4-19.8,5.3-40.3,5.7-61.5
			c0.2-7,0.1-13.3-0.4-19.1c0.2-4.9,0.3-9.7,0.3-14.2c0-5.4-0.6-9.8-1.8-13.6c56.5,1.5,102.1,48,102.1,104.9
			C910.3,645.3,863.3,692.3,805.5,692.3z"/>
	</g>
	<g>
		<path d="M802.8,599.6c0.7-1.3,1.1-3,1.4-5.1c0.2-1.3,0.2-2.7,0.2-3.5C803.9,593.9,803.4,596.8,802.8,599.6z M83.4,601.8l1,4.5h0
			C84.1,604.7,83.7,603.2,83.4,601.8z"/>
		<path d="M82.7,598.3c0-0.1-0.1-0.3-0.1-0.4v0C82.6,598,82.6,598.2,82.7,598.3z"/>
	</g>
	<g>
		<path d="M276.2,400.2l-7.1,14.2c-56.7-28.5-79.7-97.9-51.2-154.7l14.3,7.2C207.6,315.8,227.4,375.6,276.2,400.2z"/>
		<path d="M174.6,125.9l7.2-14.3c56.6,28.6,79.6,98,51.1,154.8l-14.3-7.2C243.2,210.3,223.4,150.5,174.6,125.9z"/>
	</g>
	<g>
		<path d="M378.6,125.9l7.2-14.3c56.6,28.6,79.6,98,51.1,154.8l-14.3-7.2C447.2,210.3,427.4,150.5,378.6,125.9z"/>
		<path d="M480.2,400.2l-7.1,14.2c-56.7-28.5-79.7-97.9-51.2-154.7l14.3,7.2C411.6,315.8,431.4,375.6,480.2,400.2z"/>
	</g>
	<g>
		<path d="M588.6,125.9l7.2-14.3c56.6,28.6,79.6,98,51.1,154.8l-14.3-7.2C657.2,210.3,637.4,150.5,588.6,125.9z"/>
		<path d="M690.2,400.2l-7.1,14.2c-56.7-28.5-79.7-97.9-51.2-154.7l14.3,7.2C621.6,315.8,641.4,375.6,690.2,400.2z"/>
	</g>
</g>
</svg>
