<?xml version="1.0" encoding="utf-8"?>
<!-- Generator: Adobe Illustrator 20.0.0, SVG Export Plug-In . SVG Version: 6.00 Build 0)  -->
<svg version="1.1" id="Capa_1" xmlns="http://www.w3.org/2000/svg" xmlns:xlink="http://www.w3.org/1999/xlink" x="0px" y="0px"
	 viewBox="0 0 1000 1000" style="enable-background:new 0 0 1000 1000;" xml:space="preserve">
<g>
	<g id="Snow">
		<g>
			<path d="M922.2,496.2c-0.1-14.6-12.1-26.3-26.7-26.2l-68.1,0.6l59.9-61c10.3-10.4,10.1-27.1-0.3-37.3
				c-10.4-10.2-27-10.1-37.3,0.3l-96.9,98.7l-189.3,1.7l130.7-133.1l138.4-1.2c14.6-0.1,26.3-12.1,26.1-26.6
				c-0.1-14.6-12-26.3-26.6-26.2l-85.6,0.8l49.7-50.6c10.2-10.4,10.1-27.1-0.4-37.3c-10.4-10.2-27.1-10.1-37.3,0.3l-49.6,50.5
				l-0.8-85.5c-0.2-14.6-12-26.3-26.7-26.2c-14.6,0.1-26.3,12.1-26.1,26.7l1.3,138.3L525.8,436.1l-1.7-189.2l97-98.7
				c10.3-10.4,10.1-27.1-0.3-37.3c-10.4-10.2-27.1-10.1-37.3,0.3l-60,61.1l-0.6-68.2c-0.2-14.6-12.1-26.3-26.7-26.2
				c-14.6,0.1-26.3,12-26.1,26.6l0.6,68.2l-61-59.9c-10.4-10.2-27.1-10.1-37.3,0.3c-10.2,10.4-10.1,27.1,0.3,37.3l98.7,96.9
				l1.7,189.3L339.9,305.9l-1.2-138.4c-0.1-14.6-12.1-26.3-26.6-26.1c-14.6,0.2-26.3,12-26.2,26.7l0.8,85.6l-50.6-49.7
				c-10.4-10.2-27.1-10-37.3,0.3c-10.2,10.5-10.1,27.1,0.3,37.4l50.5,49.7l-85.5,0.7c-14.6,0.2-26.3,12-26.2,26.7
				c0.2,14.6,12.1,26.3,26.7,26.2l138.3-1.2L436,474.2l-189.3,1.7L148.1,379c-10.4-10.2-27.1-10.1-37.3,0.4
				c-10.2,10.4-10.1,27.1,0.3,37.3l61,59.9l-68.2,0.6c-14.6,0.2-26.3,12.1-26.1,26.7c0.1,14.6,12,26.3,26.6,26.1l68.2-0.6l-60,61
				c-10.2,10.5-10.1,27,0.4,37.3c5.2,5,12,7.6,18.7,7.5c6.8-0.1,13.5-2.7,18.6-7.9l97-98.7l189.2-1.7L305.7,660.2l-138.3,1.2
				c-14.6,0.2-26.3,12.1-26.2,26.7c0.2,14.6,12.1,26.3,26.7,26.1l85.5-0.8L203.8,764c-10.2,10.5-10.1,27,0.3,37.3
				c5.2,5.1,12,7.6,18.7,7.6c6.8-0.1,13.5-2.7,18.6-7.9l49.7-50.6l0.8,85.6c0.2,14.5,12.1,26.3,26.7,26.1
				c14.6-0.1,26.3-12.1,26.1-26.7l-1.2-138.3l130.7-133.1l1.7,189.3l-96.9,98.6c-10.2,10.5-10.1,27.1,0.3,37.3s27.1,10.1,37.3-0.4
				l59.9-61l0.6,68.2c0.2,14.6,12.1,26.3,26.7,26.1c14.6-0.1,26.3-12.1,26.1-26.7l-0.6-68.2l61,60c5.2,5.1,12,7.6,18.8,7.6
				c6.8-0.1,13.5-2.7,18.6-7.9c10.3-10.5,10.1-27.1-0.3-37.3l-98.7-97l-1.6-189.2l133.1,130.8l1.2,138.4
				c0.2,14.5,12.1,26.2,26.7,26.1c14.6-0.2,26.2-12.1,26.1-26.7l-0.7-85.5l50.5,49.6c5.2,5.1,12,7.6,18.7,7.6
				c6.8-0.1,13.5-2.7,18.6-7.9c10.2-10.4,10.1-27-0.4-37.3l-50.6-49.6l85.6-0.8c14.6-0.2,26.3-12.1,26.2-26.7
				c-0.2-14.6-12.1-26.3-26.7-26.1L697,656.6L563.8,525.8l189.3-1.6l98.7,97c5.2,5.1,12,7.6,18.7,7.6c6.8-0.1,13.5-2.7,18.6-7.9
				c10.2-10.5,10.1-27.1-0.3-37.3l-61.1-60l68.2-0.6C910.7,522.7,922.3,510.8,922.2,496.2z"/>
		</g>
	</g>
</g>
</svg>
