<?xml version="1.0" encoding="utf-8"?>
<!-- Generator: Adobe Illustrator 20.0.0, SVG Export Plug-In . SVG Version: 6.00 Build 0)  -->
<svg version="1.1" id="Capa_1" xmlns="http://www.w3.org/2000/svg" xmlns:xlink="http://www.w3.org/1999/xlink" x="0px" y="0px"
	 viewBox="0 0 1000 1000" style="enable-background:new 0 0 1000 1000;" xml:space="preserve">
<g>
	<g>
		<path d="M780.5,256.3c2-2.2,5-3.8,8.3-4.2C785.8,252.5,782.7,254,780.5,256.3z"/>
		<path d="M142,678H86.8c-0.2,0-0.4,0-0.6,0c-6.1-0.3-11.5-5.5-12.1-11.1c0-0.4-0.1-0.7-0.1-1.1V320.6c0-0.4,0-0.8,0.1-1.2
			c0.7-5.2,6-9.8,11.5-10.4c0.4,0,0.8-0.1,1.2-0.1h-0.9l56.1-1c0.2,0,0,1,0,1"/>
		<path d="M142,251.8c0-6.1,5.8-10.8,12.7-10.8H211c6.8,0,12,4.4,12,10.8V471h553.9V262.8c0-6.7,6.9-11.8,13.6-11.8h56.2
			c5.4,0,10,3.3,11.6,8c0,0.1,0.1,0.2,0.1,0.2c0.4,1.1,0.6,2.3,0.6,3.6v57.1c0,0,0,0,0.1,0.1c0.2,0.3,0.6,1,0.8,1h56.4
			c6.3,0,10.2,3.9,10.7,9.9c-0.5-5.7-4.6-8.9-10.7-8.9H916c6.1,0,10,4,10,10.1v345.2c0,6.6-3.9,11.7-9.7,11.7H860h-0.9l-0.1,57.6
			c0,6.7-5.4,13.3-12.1,13.3h-56.4c-0.8,0-1.7-0.1-2.5-0.3c-0.1,0-0.2,0-0.3-0.1c-5.7-1.5-10.8-7.2-10.8-12.9V524H223v212
			c0,6.4-5.4,12.1-12,12.1h-56.3V748c-6.8,0-12.7-5.9-12.7-12.1"/>
		<path d="M85.2,678"/>
	</g>
	<g>
		<path d="M776.9,471"/>
	</g>
	<g>
		<path d="M788.8,252.1c-3.1,0.4-6.2,1.9-8.3,4.2C782.5,254,785.5,252.5,788.8,252.1z"/>
		<path d="M859.1,262.8V320c-0.1-0.1-0.1-0.1-0.1-0.1L859.1,262.8c-0.1-1.3-0.3-2.5-0.7-3.6C858.9,260.3,859.1,261.5,859.1,262.8z"
			/>
		<path d="M859.1,689.7v57c0,6.7-5.7,13.3-12.1,13.3h-56.4c-0.9,0-1.8-0.1-2.6-0.4c0.8,0.2,1.7,0.3,2.5,0.3h56.4
			c6.7,0,12.1-6.6,12.1-13.3L859.1,689.7C859,689.6,859,689.6,859.1,689.7z"/>
	</g>
</g>
</svg>
