<?xml version="1.0" encoding="utf-8"?>
<!-- Generator: Adobe Illustrator 20.0.0, SVG Export Plug-In . SVG Version: 6.00 Build 0)  -->
<svg version="1.1" xmlns="http://www.w3.org/2000/svg" xmlns:xlink="http://www.w3.org/1999/xlink" x="0px" y="0px"
	 viewBox="0 0 1000 1000" style="enable-background:new 0 0 1000 1000;" xml:space="preserve">
<style type="text/css">
	.st0{display:none;}
	.st1{display:inline;stroke:#FFFFFF;stroke-miterlimit:10;}
</style>
<g id="Capa_2_1_" class="st0">
	<rect x="-62.3" class="st1" width="1132.4" height="1054.7"/>
</g>
<g id="Capa_1">
	<g id="Capa_2">
	</g>
	<g id="Capa_1_1_">
		<g>
			<g>
				<g>
					<g>
						<path d="M668.5,580.6c-1.4-3.2-4.6-5.6-8.3-5.6c-0.1,0-0.1,0-0.1,0h-0.9l-120.7,0.9c-4.9,0.1-8.9,4.2-8.9,9.2
							c0,4.9,4.1,8.9,9,8.9h0.1l120.8-0.9h0.8c3.8,0,7-2.4,8.3-5.8c0.4-1,0.6-2.1,0.6-3.3C669.2,582.8,669,581.6,668.5,580.6z
							 M668.5,580.6c-1.4-3.2-4.6-5.6-8.3-5.6c-0.1,0-0.1,0-0.1,0h-0.9l-120.7,0.9c-4.9,0.1-8.9,4.2-8.9,9.2c0,4.9,4.1,8.9,9,8.9
							h0.1l120.8-0.9h0.8c3.8,0,7-2.4,8.3-5.8c0.4-1,0.6-2.1,0.6-3.3C669.2,582.8,669,581.6,668.5,580.6z M668.5,580.6
							c-1.4-3.2-4.6-5.6-8.3-5.6c-0.1,0-0.1,0-0.1,0h-0.9l-120.7,0.9c-4.9,0.1-8.9,4.2-8.9,9.2c0,4.9,4.1,8.9,9,8.9h0.1l120.8-0.9
							h0.8c3.8,0,7-2.4,8.3-5.8c0.4-1,0.6-2.1,0.6-3.3C669.2,582.8,669,581.6,668.5,580.6z"/>
					</g>
				</g>
			</g>
			<g>
				<g>
					<g>
						<path d="M668.5,580.6c-1.4-3.2-4.6-5.6-8.3-5.6c-0.1,0-0.1,0-0.1,0h-0.9l-120.7,0.9c-4.9,0.1-8.9,4.2-8.9,9.2
							c0,4.9,4.1,8.9,9,8.9h0.1l120.8-0.9h0.8c3.8,0,7-2.4,8.3-5.8v-0.9C668.7,584.5,668.6,582.5,668.5,580.6z"/>
					</g>
				</g>
				<g>
					<g>
						<path d="M500,753.5c-44.5,0-86.5-17.4-118.2-48.9c-31.5-31.5-48.9-73.5-48.9-118.2c0-44.6,17.4-86.6,48.9-118.2
							c31.6-31.5,73.6-48.9,118.2-48.9s86.6,17.4,118.2,48.9c27.1,27.1,44,62.5,48,100.5c4,1.6,7.3,4.7,9.1,8.8
							c0.9,1.9,1.4,4.1,1.4,6.6c0,2.1-0.4,4.2-1.1,6c-1.7,4.3-4.9,7.6-8.9,9.3c-3.1,39.7-20.1,76.9-48.4,105.3
							C586.6,736.1,544.6,753.5,500,753.5z M500,434.3c-40.6,0-78.8,15.8-107.6,44.5c-28.7,28.8-44.5,67-44.5,107.6
							c0,40.7,15.8,78.9,44.5,107.6c28.9,28.7,67.1,44.5,107.6,44.5c40.6,0,78.8-15.8,107.6-44.5c27-27.1,42.8-63.1,44.4-101.2
							l0.3-7.2h8c0.7,0,1.1-0.5,1.3-1l0-0.1c0,0,0.1-0.2,0.1-0.5c0-0.1,0-0.2,0-0.3l-0.1-0.1c-0.2-0.5-0.8-1.1-1.4-1.1h-8l-0.5-7
							c-2.6-36.5-18.2-70.8-44.1-96.7C578.8,450.1,540.6,434.3,500,434.3z M661.7,583.7L661.7,583.7L661.7,583.7z"/>
					</g>
				</g>
			</g>
			<g>
				<g>
					<g>
						<path d="M155.8,120.7v746.6c0,6.6,5.4,12,12,12h664.5c6.6,0,12-5.4,12-12V120.7H155.8z M826.4,861.3H173.8V337.8h652.6
							L826.4,861.3L826.4,861.3z M826.4,319.8H173.8V138.7h652.6L826.4,319.8L826.4,319.8z"/>
					</g>
				</g>
			</g>
			<g>
				<g>
					<path d="M646.5,229c0.2,20.4-16.1,37.1-36.4,37.3c-20.4,0.2-37.1-16.1-37.3-36.5c-0.2-17.4,11.7-32.1,27.8-36.2l0.5,35.6
						c0.1,4.9,4.1,8.7,9,8.7h0.1c5,0,9-4,8.9-9l-0.5-35.3C634.5,197.6,646.3,211.9,646.5,229z"/>
				</g>
			</g>
			<g>
				<g>
					<path d="M767.7,228.5c0.2,20.4-16.1,37.1-36.4,37.3s-37.1-16.1-37.3-36.4c-0.2-17.4,11.7-32.2,27.9-36.2l0.4,36.2
						c0.1,4.9,4.1,8.7,9,8.7c0,0,0,0,0.1,0c5,0,9-4,8.9-9l-0.4-35.9C755.7,197.1,767.5,211.3,767.7,228.5z"/>
				</g>
			</g>
			<g>
				<g>
					<g>
						<path d="M674.2,584c0,1.8-0.3,3.5-0.9,5.1c-2.1,5.4-7.3,9-13,9h-0.8L538.8,599h-0.1c-7.7,0-14-6.2-14-13.9s6.2-14,13.8-14.2
							l121.8-0.9c5.6,0,10.7,3.4,12.9,8.6C673.9,580.3,674.2,582.2,674.2,584z"/>
					</g>
				</g>
			</g>
		</g>
	</g>
</g>
</svg>
