<?xml version="1.0" encoding="utf-8"?>
<!-- Generator: Adobe Illustrator 20.0.0, SVG Export Plug-In . SVG Version: 6.00 Build 0)  -->
<svg version="1.1" id="Capa_1" xmlns="http://www.w3.org/2000/svg" xmlns:xlink="http://www.w3.org/1999/xlink" x="0px" y="0px"
	 viewBox="0 0 1000 1000" style="enable-background:new 0 0 1000 1000;" xml:space="preserve">
<g>
	<g>
		<path d="M660.7,881.5l-1.6,0.2c-3.1,0.5-6.1-1.3-6.8-4l-16.8-81h-7.9l11.3,79.6c0.4,2.8-1.9,5.3-5.1,5.6l-1.6,0.2
			c-3.2,0.3-6.1-1.6-6.5-4.3l-11.5-81.1h-10.3l11.3,79.6c0.4,2.8-1.9,5.3-5.1,5.6l-1.6,0.2c-3.2,0.3-6.1-1.6-6.5-4.4l-11.5-81h-9
			l11.3,79.6c0.4,2.8-1.9,5.3-5.1,5.6l-1.6,0.2c-3.2,0.3-6.1-1.6-6.5-4.4l-11.5-81h-10.3l8.1,80.1c0.3,2.7-2.1,5.2-5.3,5.4l-1.6,0.1
			c-3.2,0.2-6.1-1.9-6.3-4.5l-8.2-81.1h-8.7l4,80.4c0.1,2.7-2.4,5.1-5.6,5.2l-1.6,0.1c-3.2,0.1-5.9-2.1-6.1-4.8l-4-80.9h-8.7v80.5
			c0,2.9-2.3,5.2-5.2,5.2h-2.8c-2.9,0-5.2-2.4-5.2-5.2v-80.5h-10.5v80.5c0,2.9-2.3,5.2-5.2,5.2h-2.8c-2.9,0-5.2-2.4-5.2-5.2v-80.5
			h-10.5v80.5c0,2.9-2.3,5.2-5.2,5.2h-2.8c-2.9,0-5.3-2.4-5.2-5.2v-80.5h-8l-5.8,80.9c-0.2,2.8-3,4.9-6.2,4.7l-1.6-0.1
			c-3.2-0.1-5.7-2.5-5.5-5.3l5.8-80.2h-9l-9.1,81c-0.4,2.7-3.2,4.8-6.4,4.5l-1.6-0.1c-3.1-0.3-5.5-2.7-5.2-5.5l9-79.9h-10.4l-9.1,81
			c-0.4,2.7-3.2,4.8-6.4,4.5l-1.6-0.1c-3.2-0.3-5.5-2.7-5.2-5.5l9-79.9h-8.1l-9.1,81c-0.4,2.7-3.2,4.8-6.4,4.5l-1.6-0.1
			c-3.2-0.3-5.5-2.7-5.2-5.5l9-79.9h-7.6l-9.1,81c-0.4,2.7-3.2,4.8-6.4,4.5l-1.6-0.1c-3.2-0.3-5.6-2.7-5.2-5.5l9.1-81.2
			c-3.9-2-6.5-6-6.5-10.6v-7.5c0-6.6,5.4-12,12-12h123.6V137.6c0-11,9-20,20-20h9c11,0,20,9,20,20v627.6h123.8c6.6,0,12,5.4,11.9,12
			v7.5c0,5.4-3.7,10-8.6,11.5l16.5,79.5C666,878.4,663.9,881,660.7,881.5z"/>
	</g>
</g>
</svg>
