<?xml version="1.0" encoding="utf-8"?>
<!-- Generator: Adobe Illustrator 20.0.0, SVG Export Plug-In . SVG Version: 6.00 Build 0)  -->
<svg version="1.1" id="Capa_1" xmlns="http://www.w3.org/2000/svg" xmlns:xlink="http://www.w3.org/1999/xlink" x="0px" y="0px"
	 viewBox="0 0 32 32" style="enable-background:new 0 0 32 32;" xml:space="preserve">
<g>
	<g>
		<path d="M20.5,7.4V7c0-0.2-0.2-0.4-0.4-0.4h-0.8V5.5h0.8c0.2,0,0.4-0.2,0.4-0.4V4.7c0-0.2-0.2-0.4-0.4-0.4h-2.6V2.5
			c0-0.2-0.2-0.4-0.4-0.4h-2.2c-0.2,0-0.4,0.2-0.4,0.4v6.3h-0.2c-0.2,0-0.4,0.2-0.4,0.4v0.4c0,0.2,0.2,0.4,0.4,0.4h0.2v8.2
			c0.5,0.1,1,0.4,1.4,0.7c0.4-0.3,0.9-0.6,1.4-0.7V10h0.2c0.2,0,0.4-0.2,0.4-0.4V9.2c0-0.2-0.2-0.4-0.4-0.4h-0.2V7.6h2.6
			C20.2,7.6,20.3,7.4,20.5,7.4z"/>
	</g>
	<g>
		<path d="M21.6,22.1c0-1.9-1.5-3.4-3.4-3.4c-0.3,0-0.7,0.1-1,0.2c-0.5,0.2-1,0.5-1.4,0.9c-0.3-0.4-0.8-0.7-1.4-0.9
			c-0.3-0.1-0.6-0.2-1-0.2c-1.9,0-3.4,1.5-3.4,3.4c0,1.6,1.1,2.9,2.5,3.3c0,0.3-0.1,0.7-0.1,1c0,1.9,1.5,3.4,3.4,3.4
			s3.4-1.5,3.4-3.4c0-0.4,0-0.7-0.1-1C20.6,25,21.7,23.7,21.6,22.1z M14.3,26.3c0-0.5,0.3-1,0.7-1.3c0.1,0,0.1-0.1,0.2-0.1
			c0.2-0.1,0.5-0.2,0.7-0.2c0.3,0,0.5,0.1,0.7,0.2c0.1,0,0.1,0.1,0.2,0.1c0.4,0.3,0.7,0.8,0.7,1.3c0,0.9-0.7,1.6-1.6,1.6
			S14.3,27.2,14.3,26.3z M15,22.1c0,0.5-0.3,1-0.7,1.3c-0.1,0-0.1,0.1-0.2,0.1c-0.2,0.1-0.5,0.2-0.7,0.2c-0.9,0-1.6-0.7-1.6-1.6
			c0-0.9,0.7-1.6,1.6-1.6C14.2,20.5,14.9,21.2,15,22.1z M19.9,22.1c0,0.9-0.7,1.6-1.6,1.6c-0.3,0-0.5-0.1-0.7-0.2
			c-0.1,0-0.1-0.1-0.2-0.1c-0.4-0.3-0.7-0.8-0.7-1.3c0-0.9,0.7-1.6,1.6-1.6C19.2,20.5,19.9,21.2,19.9,22.1z"/>
	</g>
</g>
</svg>
