<?xml version="1.0" encoding="utf-8"?>
<!-- Generator: Adobe Illustrator 20.0.0, SVG Export Plug-In . SVG Version: 6.00 Build 0)  -->
<svg version="1.1" id="Capa_1" xmlns="http://www.w3.org/2000/svg" xmlns:xlink="http://www.w3.org/1999/xlink" x="0px" y="0px"
	 viewBox="0 0 1000 1000" style="enable-background:new 0 0 1000 1000;" xml:space="preserve">
<g>
	<g>
		<g>
			<path d="M886.7,668.6c0.3,25.4-20,46.2-45.4,46.6c-25.4,0.3-46.2-20-46.6-45.4c-0.3-23,16.4-42.3,38.4-45.9l0.6,45.5
				c0,4.1,3.4,7.4,7.5,7.4h0.1c4.1,0,7.5-3.5,7.4-7.6l-0.6-45.3C869.8,627.2,886.4,646,886.7,668.6z"/>
		</g>
		<g>
			<path d="M886.2,536.5c0.3,25.4-20,46.2-45.4,46.5s-46.2-20-46.6-45.4c-0.3-22.9,16.2-42.1,38.1-45.9l0.6,45.7
				c0,4.1,3.4,7.4,7.5,7.4h0.1c4.1-0.1,7.5-3.5,7.4-7.6l-0.6-45.7C869.1,494.9,885.9,513.6,886.2,536.5z"/>
		</g>
		<g>
			<path d="M924,209.2H76c-6.6,0-12,5.4-12,12v557.5c0,6.6,5.4,12,12,12h848c6.6,0,12-5.4,12-12V221.2
				C936,214.6,930.6,209.2,924,209.2z M921,775.8H79V224.2h842V775.8z"/>
		</g>
	</g>
	<g>
		<g>
			<path d="M744.7,266.3H124.4c-6.6,0-12,5.4-12,12V716c0,6.6,5.4,12,12,12h620.3c6.6,0,12-5.4,12-12V278.3
				C756.7,271.8,751.3,266.3,744.7,266.3z M741.7,713H127.4V281.3h614.3V713z"/>
		</g>
	</g>
</g>
</svg>
