<?xml version="1.0" encoding="utf-8"?>
<!-- Generator: Adobe Illustrator 20.0.0, SVG Export Plug-In . SVG Version: 6.00 Build 0)  -->
<svg version="1.1" id="Capa_1" xmlns="http://www.w3.org/2000/svg" xmlns:xlink="http://www.w3.org/1999/xlink" x="0px" y="0px"
	 viewBox="0 0 1000 1000" style="enable-background:new 0 0 1000 1000;" xml:space="preserve">
<g>
	<g>
		<path d="M739.5,80.5C750,92,756.4,107.3,756.4,124v245.3c0.1-0.3,0.1-0.7,0.1-1V124C756.5,107.3,750,92,739.5,80.5z"/>
		<path d="M739.5,80.5c-0.7-0.8-1.4-1.5-2.1-2.2c-11.8-11.8-28-19-45.8-19H308.4c-35.6,0-64.8,29.2-64.8,64.8v752
			c0,35.6,29.2,64.8,64.8,64.8h383.2c35.6,0,64.8-29.2,64.8-64.8V124C756.4,107.3,750,92,739.5,80.5z M263.6,124
			c0-11.9,4.7-23.1,13.2-31.6s19.7-13.2,31.6-13.2h383.2c11.9,0,23.1,4.7,31.6,13.2s13.2,19.7,13.2,31.6v229.8H263.6V124z
			 M736.4,876c0,11.9-4.7,23.1-13.2,31.6s-19.7,13.2-31.6,13.2H308.4c-11.9,0-23.1-4.7-31.6-13.2s-13.2-19.7-13.2-31.6V373.8h472.8
			V876z"/>
	</g>
	<g>
		<path d="M540.7,243h169.2c9,0,16.3-7.4,16.3-16.3V226c0-9-7.4-16.3-16.3-16.3H558.7c-14.1,0-25.7,11.6-25.7,25.7l0,0
			C533.1,239.6,536.5,243,540.7,243z"/>
	</g>
	<g>
		<path d="M540.7,505.6h169.2c9,0,16.3-7.4,16.3-16.3v-0.6c0-9-7.4-16.3-16.3-16.3H558.7c-14.1,0-25.7,11.6-25.7,25.7l0,0
			C533.1,502.1,536.5,505.6,540.7,505.6z"/>
	</g>
</g>
</svg>
