<?xml version="1.0" encoding="utf-8"?>
<!-- Generator: Adobe Illustrator 20.0.0, SVG Export Plug-In . SVG Version: 6.00 Build 0)  -->
<svg version="1.1" id="Capa_1" xmlns="http://www.w3.org/2000/svg" xmlns:xlink="http://www.w3.org/1999/xlink" x="0px" y="0px"
	 viewBox="0 0 1000 1000" style="enable-background:new 0 0 1000 1000;" xml:space="preserve">
<g id="Capa_2">
</g>
<g id="Capa_1_1_">
	<g>
		<g>
			<g>
				<path d="M770.5,472.1V710c0,28.6-11.2,55.6-31.6,75.9c-20.4,20.4-47.3,31.6-75.9,31.6H348.1c-31.8,0-61.7-12.5-84.4-35.1
					c-22.6-22.6-35.1-52.6-35.1-84.4V472.1H770.5 M773.5,457.1H225.6c-6.6,0-12,5.4-12,12V698c0,74,60.5,134.5,134.5,134.5H663
					c67.4,0,122.5-55.1,122.5-122.5V469.1C785.5,462.5,780.1,457.1,773.5,457.1L773.5,457.1z"/>
			</g>
		</g>
		<g>
			<g>
				<path d="M147.6,500.9h77.8c6.6,0,12,5.4,12,12V531c0,6.6-5.4,12-12,12h-77.8c-6.6,0-12-5.4-12-12v-18.1
					C135.6,506.3,141,500.9,147.6,500.9z"/>
			</g>
		</g>
		<g>
			<g>
				<path d="M774.7,500.9h77.8c6.6,0,12,5.4,12,12V531c0,6.6-5.4,12-12,12h-77.8c-6.6,0-12-5.4-12-12v-18.1
					C762.7,506.3,768.1,500.9,774.7,500.9z"/>
			</g>
		</g>
		<g>
			<path d="M785,434.2v0.6c0,4.6-2.4,8.6-6.3,10.6l-0.1,0.1c-1,0.5-6.6-3.1-7.7-2.9c-0.2,0-2.4-4.1-2.6-4.1
				c-0.5,0.1,3.1,4.1,2.6,4.1l-545.4,4.1c-0.5,0-1,0-1.5-0.1c-0.2,0-0.3,0-0.5-0.1c-1.2-0.2-2.4-0.5-3.4-1c-0.1,0-0.2,0-0.2-0.1
				c-3.9-2-6.9-6-6.9-10.7v-0.6c0-6.6,6-11.2,12.6-11.2h547.9C780.1,423,785,427.6,785,434.2z"/>
		</g>
		<g>
			<path d="M766.5,450.1c-3.7,0-9.6-0.1-19.1-0.2c-15.8-0.2-37.5-0.5-61.1-0.9c-35.5-0.5-106.8-1.7-185.4-3.3
				c-77.9-1.6-140.7-3.2-186.6-4.8c-88.5-3-90-4.7-93-7.9c-2.2-2.4-2.6-5.9-1.2-8.8c0.2-0.3,0.3-0.6,0.5-0.8
				c27-47.6,66.1-87.6,113.1-115.7c48.5-28.9,104.1-44.2,160.8-44.2c56.7,0,112.3,15.3,160.8,44.2c47.1,28,86.2,68,113.2,115.7
				c0.1,0.2,0.2,0.4,0.4,0.7c1.5,2.7,2.1,3.5,2.6,4.2c0.8,1.1,1.3,2,2.3,3.9c1.9,1.5,3.5,4.2,4.5,8.9l0.4,1.7l1.4,3.2h-0.8l0.2,1
				l-5.5,2.5C772.9,449.9,772.5,450.1,766.5,450.1z M238.7,422.2c20.2,1.7,81.8,4.7,265.9,8.5c109.1,2.3,217.1,3.9,253.3,4.3
				c-0.5-0.8-1.2-2-2.1-3.6c-0.1-0.2-0.2-0.4-0.4-0.7c-25.7-45.4-62.9-83.4-107.8-110.2c-46.2-27.5-99.1-42-153.2-42
				c-54,0-107,14.5-153.1,42C299.4,345.6,264.1,380.6,238.7,422.2z"/>
		</g>
		<g>
			<path d="M530.8,320.4h-62.5c-6.6,0-12-5.4-12-12v-87.7c0-6.6,5.4-12,12-12h62.5c6.6,0,12,5.4,12,12v87.7
				C542.8,315,537.4,320.4,530.8,320.4z"/>
		</g>
		<g>
			<ellipse cx="499.5" cy="197.6" rx="116" ry="30.2"/>
		</g>
	</g>
</g>
</svg>
