<?xml version="1.0" encoding="utf-8"?>
<!-- Generator: Adobe Illustrator 20.0.0, SVG Export Plug-In . SVG Version: 6.00 Build 0)  -->
<svg version="1.1" id="Capa_1" xmlns="http://www.w3.org/2000/svg" xmlns:xlink="http://www.w3.org/1999/xlink" x="0px" y="0px"
	 viewBox="0 0 32 32" style="enable-background:new 0 0 32 32;" xml:space="preserve">
<style type="text/css">
	.st0{fill:none;}
</style>
<rect x="2" y="1.5" class="st0" width="28" height="28"/>
<g>
	<g>
		<path d="M15.2,13.2c-0.2-1.1,0.4-2.2,1.4-2.9c0.5-0.3,0.8-0.9,0.7-1.5c-0.1-0.8-0.9-1.3-1.7-1.1c-0.4,0.1-0.8,0.4-1,0.7
			c-0.1,0.2-0.3,0.3-0.5,0.3l-0.4-0.1c-0.2,0-0.3-0.3-0.3-0.5c0.3-0.8,1.1-1.4,1.9-1.6c1.4-0.3,2.8,0.7,3,2.1
			c0.2,1.1-0.3,2.1-1.2,2.7c-0.7,0.4-1,1.1-0.9,1.7l0.1,0.3l-1.1,0.2L15.2,13.2z"/>
	</g>
	<g>
		<path d="M18.4,13.5c-0.6-0.5-1.5-0.8-2.5-0.8c-0.9,0-1.8,0.3-2.5,0.8c0,0-7.2,5.7-10.6,8.4c-0.9,0.7-0.9,1.3-0.8,1.7
			c0.1,0.4,0.5,0.8,1.7,0.8c0.7,0,21.7,0,22.6,0c0.2,0,0.4-0.2,0.4-0.4v-0.4c0-0.2-0.2-0.4-0.4-0.4c-0.9,0-21.9,0-22.6,0
			c-0.2,0-0.4,0-0.5-0.1c0.1-0.1,0.2-0.2,0.4-0.4c3.5-2.7,10.6-8.4,10.6-8.4c0.4-0.3,1.1-0.5,1.7-0.5c0.7,0,1.3,0.2,1.7,0.5
			c0,0,7.2,5.7,10.6,8.4c0.2,0.2,0.3,0.3,0.4,0.4c-0.1,0-0.3,0.1-0.5,0.1c-0.7,0-1.5,0-2.4,0c-0.2,0-0.4,0.2-0.4,0.4V24
			c0,0.2,0.2,0.4,0.4,0.4c0.9,0,1.7,0,2.4,0c1.1,0,1.5-0.4,1.7-0.8c0.1-0.4,0.1-1-0.8-1.7C25.6,19.2,18.4,13.5,18.4,13.5z"/>
	</g>
</g>
</svg>
