<?xml version="1.0" encoding="utf-8"?>
<!-- Generator: Adobe Illustrator 20.0.0, SVG Export Plug-In . SVG Version: 6.00 Build 0)  -->
<svg version="1.1" id="Capa_1" xmlns="http://www.w3.org/2000/svg" xmlns:xlink="http://www.w3.org/1999/xlink" x="0px" y="0px"
	 viewBox="0 0 32 32" style="enable-background:new 0 0 32 32;" xml:space="preserve">
<g>
	<path d="M27.5,26.5c0,0.5-0.4,1-1,1c-0.8,0-1.6-0.2-2.4-0.5c-1-0.5-2.3-0.5-3.3,0c-1.5,0.7-3.3,0.7-4.8,0c-1-0.5-2.3-0.5-3.3,0
		c-1.5,0.7-3.3,0.7-4.8,0c-1-0.5-2.3-0.5-3.3,0c-0.8,0.3-1.6,0.5-2.4,0.5c-0.5,0-1-0.4-1-1c0-0.5,0.4-1,1-1c0.6,0,1.1-0.1,1.6-0.3
		c1.5-0.7,3.4-0.7,4.9,0c1,0.4,2.2,0.4,3.2,0c1.5-0.7,3.3-0.7,4.9,0c1,0.4,2.2,0.4,3.2,0c1.5-0.7,3.3-0.7,4.9,0
		c0.5,0.2,1,0.3,1.6,0.3C27.1,25.6,27.5,26,27.5,26.5z"/>
	<path d="M27.5,23.1c0,0.5-0.4,0.9-1,0.9c-0.8,0-1.6-0.2-2.4-0.5c-1-0.5-2.3-0.5-3.3,0c-1.5,0.7-3.3,0.7-4.8,0c-1-0.5-2.3-0.5-3.3,0
		c-1.5,0.7-3.3,0.7-4.8,0c-1-0.5-2.3-0.5-3.3,0c-0.8,0.3-1.6,0.5-2.4,0.5c-0.5,0-1-0.4-1-0.9c0-0.5,0.4-1,1-1c0.6,0,1.1-0.1,1.6-0.3
		c1.5-0.7,3.4-0.7,4.9,0c1,0.4,2.2,0.4,3.2,0c1.5-0.7,3.4-0.7,4.9,0c1,0.4,2.2,0.4,3.2,0c1.5-0.7,3.3-0.7,4.9,0
		c0.5,0.2,1,0.3,1.6,0.3C27.1,22.2,27.5,22.6,27.5,23.1z"/>
	<path d="M26.5,18.8c-0.5,0-1.1-0.1-1.6-0.3c-0.6-0.3-1-0.5-2-0.5V6.1c0-0.7,0.6-1.3,1.3-1.3c0.7,0,1.3,0.6,1.3,1.3c0,0.5,0.4,1,1,1
		c0.5,0,1-0.4,1-1c0-1.8-1.5-3.2-3.2-3.2S21,4.3,21,6.1V8h-6V6.1c0-0.7,0.7-1.3,1.4-1.3c0.7,0,1.4,0.6,1.4,1.3c0,0.5,0.4,1,1,1
		c0.5,0,1-0.4,1-1c0-1.8-1.6-3.2-3.4-3.2c-1.8,0-3.4,1.4-3.4,3.2V18c0,0.1-0.7,0.2-1.2,0.4c-1,0.5-2.1,0.5-3.1,0
		c-1.5-0.7-3.3-0.7-4.8,0c-0.5,0.2-1,0.3-1.5,0.3c-0.5,0-1,0.4-1,1c0,0.5,0.4,1,1,1c0.8,0,1.6-0.2,2.4-0.5c1-0.5,2.3-0.5,3.3,0
		c1.5,0.7,3.3,0.7,4.8,0c1-0.5,2.3-0.5,3.3,0c1.5,0.7,3.3,0.7,4.8,0c1-0.5,2.2-0.5,3.3,0c0.7,0.3,1.6,0.5,2.4,0.5c0.5,0,1-0.4,1-1
		C27.5,19.2,27.1,18.8,26.5,18.8z M15,10h6v1h-6V10z M15,13h6v1h-6V13z M15,16h6v2c0,0.1-0.6,0.2-1,0.4c-1,0.5-2.3,0.5-3.3,0
		C16.2,18.2,16,18,15,17.9V16z"/>
</g>
</svg>
