<?xml version="1.0" encoding="utf-8"?>
<!-- Generator: Adobe Illustrator 20.0.0, SVG Export Plug-In . SVG Version: 6.00 Build 0)  -->
<svg version="1.1" id="Capa_1" xmlns="http://www.w3.org/2000/svg" xmlns:xlink="http://www.w3.org/1999/xlink" x="0px" y="0px"
	 viewBox="0 0 1000 1000" style="enable-background:new 0 0 1000 1000;" xml:space="preserve">
<g id="Capa_2">
</g>
<g id="Capa_1_1_">
	<g>
		<g>
			<rect x="499.8" y="499.8" width="0.4" height="0.4"/>
		</g>
	</g>
	<g>
		<g>
			<g>
				<path d="M137,791.8c-1.1,0-2-0.9-2-2v-30.7c0-1.1,0.9-2,2-2h726c1.1,0,2,0.9,2,2v30.7c0,1.1-0.9,2-2,2H137z"/>
			</g>
			<g>
				<path d="M855,767.1v14.7H145v-14.7H855 M863,747.1H137c-6.6,0-12,5.4-12,12v30.7c0,6.6,5.4,12,12,12h726c6.6,0,12-5.4,12-12
					v-30.7C875,752.5,869.6,747.1,863,747.1L863,747.1z"/>
			</g>
		</g>
		<g>
			<path d="M847.3,740H150.7c-14.3,0-26-11.8-26-26.4c0-35.6,6.9-70.3,20.6-103c13.2-31.7,32-60.1,56-84.4
				c49.7-50.4,115.2-78.2,184.5-78.2h461.6c14.4,0,26.6,12.2,26.6,26.6v238.8C874,727.8,861.8,740,847.3,740z M385.8,468
				c-63.9,0-124.4,25.6-170.3,72.2c-22.2,22.5-39.6,48.8-51.8,78.1c-12.6,30.3-19,62.3-19,95.3c0,3.4,2.8,6.4,6,6.4h696.6
				c3.4,0,6.7-3.2,6.7-6.6V474.6c0-3.3-3.3-6.6-6.6-6.6H385.8z"/>
		</g>
		<g>
			<path d="M872,234.7v-14.5c0-12.5-10.4-22.2-22.8-22.2h-590c-17.1,0-32.7,7.1-44,18.4C204,227.7,197,243.7,197,260.9
				c0,7,5.8,13.1,12.8,13.1H680l0,0l0,0v184h175.8c9,0,16.2,7.7,16.2,16.6V253.3C872,246.5,872,246.5,872,234.7z"/>
		</g>
	</g>
</g>
</svg>
