<?xml version="1.0" encoding="utf-8"?>
<!-- Generator: Adobe Illustrator 20.0.0, SVG Export Plug-In . SVG Version: 6.00 Build 0)  -->
<svg version="1.1" id="Capa_1" xmlns="http://www.w3.org/2000/svg" xmlns:xlink="http://www.w3.org/1999/xlink" x="0px" y="0px"
	 viewBox="0 0 1000 1000" style="enable-background:new 0 0 1000 1000;" xml:space="preserve">
<style type="text/css">
	.st0{display:none;}
	.st1{display:inline;stroke:#FFFFFF;stroke-miterlimit:10;}
</style>
<g id="Capa_2" class="st0">
	<rect x="-83.3" y="-85.6" class="st1" width="1181.3" height="1233.6"/>
</g>
<g id="Capa_1_1_">
	<g>
		<g>
			<g>
				<path d="M403.8,171.8c43.5,0,85.7,8.5,125.4,25.3c38.4,16.2,72.8,39.4,102.4,69c29.6,29.6,52.8,64,69,102.4
					c16.8,39.7,25.3,81.9,25.3,125.4s-8.5,85.7-25.3,125.4c-16.2,38.4-39.5,72.8-69,102.4c-29.6,29.6-64,52.8-102.4,69
					c-39.7,16.8-81.9,25.3-125.4,25.3s-85.7-8.5-125.4-25.3c-38.4-16.2-72.8-39.5-102.4-69c-29.6-29.6-52.8-64-69-102.4
					c-16.8-39.7-25.3-81.9-25.3-125.4s8.5-85.7,25.3-125.4c16.2-38.4,39.4-72.8,69-102.4s64-52.8,102.4-69
					C318.1,180.3,360.3,171.8,403.8,171.8 M403.8,151.8C214.9,151.8,61.7,305,61.7,493.9S214.8,836,403.8,836
					s342.1-153.2,342.1-342.1S592.7,151.8,403.8,151.8L403.8,151.8z"/>
			</g>
		</g>
		<g>
			<g>
				<path d="M403.8,271.3c30.1,0,59.2,5.9,86.6,17.5c26.5,11.2,50.3,27.3,70.8,47.7c20.4,20.4,36.5,44.3,47.7,70.8
					c11.6,27.4,17.5,56.6,17.5,86.6c0,30.1-5.9,59.2-17.5,86.6c-11.2,26.5-27.3,50.3-47.7,70.8c-20.4,20.4-44.3,36.5-70.8,47.7
					c-27.4,11.6-56.6,17.5-86.6,17.5s-59.2-5.9-86.6-17.5c-26.5-11.2-50.3-27.3-70.8-47.7c-20.4-20.4-36.5-44.3-47.7-70.8
					c-11.6-27.4-17.5-56.6-17.5-86.6c0-30.1,5.9-59.2,17.5-86.6c11.2-26.5,27.3-50.3,47.7-70.8c20.4-20.4,44.3-36.5,70.8-47.7
					C344.6,277.2,373.7,271.3,403.8,271.3 M403.8,255.3c-131.8,0-238.6,106.8-238.6,238.6S272,732.4,403.8,732.4
					s238.6-106.8,238.6-238.6S535.5,255.3,403.8,255.3L403.8,255.3z"/>
			</g>
		</g>
		<g>
			<path d="M926.3,712.6H266.1c-6.6,0-12-5.4-12-12v-3.8c0-6.6,5.4-12,12-12h660.2c6.6,0,12,5.4,12,12v3.8
				C938.3,707.2,932.9,712.6,926.3,712.6z"/>
			<path d="M926.3,719.1H266.1c-10.2,0-18.5-8.3-18.5-18.5v-3.8c0-10.2,8.3-18.5,18.5-18.5h660.2c10.2,0,18.5,8.3,18.5,18.5v3.8
				C944.8,710.8,936.5,719.1,926.3,719.1z M266.1,691.3c-3,0-5.5,2.5-5.5,5.5v3.8c0,3,2.5,5.5,5.5,5.5h660.2c3,0,5.5-2.5,5.5-5.5
				v-3.8c0-3-2.5-5.5-5.5-5.5H266.1z"/>
		</g>
		<g>
			<path d="M834.8,711c0,0,0,137.2-238.6,137.2C368.7,848.2,357.6,711,357.6,711H834.8z"/>
		</g>
	</g>
</g>
</svg>
