<?xml version="1.0" encoding="utf-8"?>
<!-- Generator: Adobe Illustrator 20.0.0, SVG Export Plug-In . SVG Version: 6.00 Build 0)  -->
<svg version="1.1" id="Capa_1" xmlns="http://www.w3.org/2000/svg" xmlns:xlink="http://www.w3.org/1999/xlink" x="0px" y="0px"
	 viewBox="0 0 1000 1000" style="enable-background:new 0 0 1000 1000;" xml:space="preserve">
<style type="text/css">
	.st0{display:none;}
	.st1{display:inline;}
</style>
<g id="Capa_2" class="st0">
	<rect x="-14.2" y="-20.4" class="st1" width="1046.3" height="1020.4"/>
</g>
<g id="Capa_1_1_">
	<g>
		<g>
			<path d="M339.7,382.5c-2.5-6.1-6.3-11.8-11.1-16.6c-9.1-9.1-20.9-14.3-33.6-14.9c-0.8,0-1.6-0.1-2.5-0.1c-0.9,0-1.7,0-2.6,0.1
				c-12.8,0.6-24.6,5.8-33.7,14.9c-9.7,9.7-15,22.5-15,36.2c0,13.7,5.3,26.5,15,36.2c9.1,9.1,21,14.4,33.7,14.9
				c0.8,0,1.7,0.1,2.6,0.1c0.8,0,1.6,0,2.5-0.1c12.7-0.6,24.6-5.8,33.6-14.9c9.7-9.7,15-22.5,15-36.2
				C343.6,395.3,342.3,388.7,339.7,382.5z M314.5,424.2c-5.9,5.9-13.7,9.1-22.1,9.1c-8.4,0-16.2-3.2-22.1-9.1
				c-5.9-5.9-9.1-13.8-9.1-22.1c0-8.4,3.2-16.2,9.1-22.1c5.9-5.9,13.8-9.1,22.1-9.1c4.2,0,8.2,0.8,12,2.4c3.7,1.6,7.2,3.8,10.1,6.7
				c5.9,5.9,9.1,13.8,9.1,22.1C323.6,410.5,320.4,418.3,314.5,424.2z"/>
			<path d="M568.1,371.2c-1.6-1.1-38.8-28.6-90-56.6c-69.4-37.9-128.3-57.1-175.1-57.1c-63.6,0-99,32.7-117.5,60.2
				c-21.7,32.2-29.4,69.9-29.4,94.4c0,37.1,11.9,71.2,33.6,96c9.3,10.7,20.4,19.6,32.9,26.6c0,0,0.1,0,0.1,0.1l0,0L179,697.5
				c-0.5,1.9-0.8,3.9-0.8,5.8c0,9.7,6.5,18.6,16.3,21.2l65.2,17.5c1.9,0.5,3.8,0.8,5.7,0.8c3.8,0,7.6-1,11-3
				c5.1-2.9,8.8-7.6,10.3-13.3l46.7-173.8v0c58.7-3.6,113.3-16.9,151-28.3c47.9-14.5,78.9-28.7,80.2-29.3l5.7-2.6l1.9-118.1
				L568.1,371.2z M312.5,553.6l-45.1,167.7c-0.3,1-1.5,1.7-2.5,1.4l-65.2-17.5c-0.6-0.1-1-0.6-1.2-0.9s-0.4-0.9-0.2-1.5l42.9-159.5
				l0-0.1c18.4,6.9,39.1,10.4,61.9,10.4C306.2,553.6,309.3,553.6,312.5,553.6L312.5,553.6L312.5,553.6z M550.6,479.4
				c-23,9.8-112.4,45.4-212.3,52.8c-3.4,0.2-6.7,0.5-10.1,0.6h-0.1c-3.4,0.2-6.8,0.3-10.2,0.5h-0.1c-4.9,0.2-9.8,0.2-14.7,0.2
				c-21.5,0-40.4-3.2-56.8-9.7c-3.2-1.2-6.3-2.6-9.3-4.1c-3.1-1.5-6.1-3.2-9-5c-8.7-5.4-16.4-12-23.2-19.8
				c-18.5-21.2-28.7-50.6-28.7-82.8c0-20.6,6.8-54.7,26-83.2C225,294.8,259,277.5,303,277.5c94.3,0,224.4,89.3,249.1,106.8
				L550.6,479.4z"/>
		</g>
		<g>
			<path d="M339.8,382.5c-2.5-6.1-6.3-11.8-11.1-16.6c-9.1-9.1-21-14.4-33.7-14.9c-0.8,0-1.6-0.1-2.5-0.1c-0.9,0-1.7,0-2.6,0.1
				c-12.7,0.6-24.5,5.8-33.6,14.9c-9.7,9.7-15,22.5-15,36.2c0,13.7,5.3,26.5,15,36.2c9.1,9.1,20.9,14.3,33.6,14.9
				c0.8,0,1.7,0.1,2.6,0.1c0.8,0,1.6,0,2.5-0.1c12.8-0.6,24.7-5.8,33.7-14.9c9.7-9.7,15-22.5,15-36.2
				C343.6,395.3,342.3,388.7,339.8,382.5z M292.4,433.3c-8.4,0-16.2-3.2-22.1-9.1c-5.9-5.9-9.1-13.8-9.1-22.1
				c0-8.4,3.2-16.2,9.1-22.1c5.9-5.9,13.8-9.1,22.1-9.1c4.2,0,8.2,0.8,12,2.4c3.7,1.6,7.2,3.8,10.1,6.7c5.9,5.9,9.1,13.8,9.1,22.1
				c0,8.4-3.2,16.2-9.1,22.1C308.6,430.1,300.8,433.3,292.4,433.3z"/>
		</g>
		<g>
			<path d="M845.2,383.9c-15.1,25.5-38,41.9-62.9,44.8c-2.7,0.2-5.5,0.4-8.3,0.4c-20.3,0-39.9-8.8-55.9-25.3l0.1-0.1
				c-13.7-14.1-30.5-20.8-47.4-18.8c-18.9,2.3-36,14.8-48,35.2l-17.2-10.2c15.1-25.5,38-41.9,62.9-44.8c23.3-2.8,46.1,6.1,64.2,24.8
				l-0.1,0.1c13.7,14.1,30.5,20.8,47.4,18.8c18.9-2.2,36-14.7,48-35.1L845.2,383.9z"/>
		</g>
		<g>
			<path d="M839.8,450.2c-15.1,25.5-38,41.9-62.9,44.8c-2.8,0.3-5.5,0.4-8.3,0.4c-20.3,0-39.9-8.8-55.9-25.3l0.2-0.2
				c-13.6-13.9-30.4-20.5-47.1-18.5c-18.9,2.4-35.9,14.8-48,35.2l-17.2-10.2c15.1-25.5,38-41.9,62.9-44.8
				c23.3-2.8,46.1,6.1,64.2,24.8l-0.2,0.2c13.6,13.9,30.4,20.5,47.1,18.5c18.9-2.2,36-14.7,48-35.1L839.8,450.2z"/>
		</g>
	</g>
</g>
</svg>
