<?xml version="1.0" encoding="utf-8"?>
<!-- Generator: Adobe Illustrator 20.0.0, SVG Export Plug-In . SVG Version: 6.00 Build 0)  -->
<svg version="1.1" id="Capa_1" xmlns="http://www.w3.org/2000/svg" xmlns:xlink="http://www.w3.org/1999/xlink" x="0px" y="0px"
	 viewBox="0 0 32 32" style="enable-background:new 0 0 32 32;" xml:space="preserve">
<style type="text/css">
	.st0{fill:none;}
</style>
<rect x="2" y="2.1" class="st0" width="28" height="28"/>
<g>
	<g>
		<path d="M24.8,11.7c-1.3,0-2-0.5-2.6-1c-0.5-0.4-0.9-0.7-1.8-0.7s-1.3,0.3-1.8,0.7c-0.6,0.4-1.3,1-2.6,1c-1.3,0-2-0.5-2.6-1
			c-0.5-0.4-0.9-0.7-1.8-0.7c-0.9,0-1.3,0.3-1.8,0.7c-0.6,0.4-1.3,1-2.6,1c-1.3,0-2-0.5-2.6-1C4,10.4,3.5,10,2.7,10
			C2.3,10,2,9.7,2,9.4C2,9,2.3,8.7,2.7,8.7c1.3,0,2,0.5,2.6,1c0.5,0.4,0.9,0.7,1.8,0.7c0.9,0,1.3-0.3,1.8-0.7c0.6-0.4,1.3-1,2.6-1
			s2,0.5,2.6,1c0.5,0.4,0.9,0.7,1.8,0.7c0.9,0,1.3-0.3,1.8-0.7c0.6-0.4,1.3-1,2.6-1c1.3,0,2,0.5,2.6,1c0.5,0.4,0.9,0.7,1.8,0.7
			c0.9,0,1.3-0.3,1.8-0.7c0.6-0.4,1.3-1,2.6-1c0.4,0,0.7,0.3,0.7,0.7c0,0.4-0.3,0.7-0.7,0.7c-0.9,0-1.3,0.3-1.8,0.7
			C26.9,11.2,26.2,11.7,24.8,11.7z"/>
	</g>
	<g>
		<path d="M24.8,15.6c-1.3,0-2-0.5-2.6-1c-0.5-0.4-0.9-0.7-1.8-0.7s-1.3,0.3-1.8,0.7c-0.6,0.4-1.3,1-2.6,1c-1.3,0-2-0.5-2.6-1
			c-0.5-0.4-0.9-0.7-1.8-0.7c-0.9,0-1.3,0.3-1.8,0.7c-0.6,0.4-1.3,1-2.6,1c-1.3,0-2-0.5-2.6-1c-0.5-0.4-0.9-0.7-1.8-0.7
			c-0.4,0-0.7-0.3-0.7-0.7c0-0.4,0.3-0.7,0.7-0.7c1.3,0,2,0.5,2.6,1c0.5,0.4,0.9,0.7,1.8,0.7c0.9,0,1.3-0.3,1.8-0.7
			c0.6-0.4,1.3-1,2.6-1s2,0.5,2.6,1c0.5,0.4,0.9,0.7,1.8,0.7c0.9,0,1.3-0.3,1.8-0.7c0.6-0.4,1.3-1,2.6-1c1.3,0,2,0.5,2.6,1
			c0.5,0.4,0.9,0.7,1.8,0.7c0.9,0,1.3-0.3,1.8-0.7c0.6-0.4,1.3-1,2.6-1c0.4,0,0.7,0.3,0.7,0.7c0,0.4-0.3,0.7-0.7,0.7
			c-0.9,0-1.3,0.3-1.8,0.7C26.9,15.1,26.2,15.6,24.8,15.6z"/>
	</g>
	<g>
		<path d="M24.8,19.5c-1.3,0-2-0.5-2.6-1c-0.5-0.4-0.9-0.7-1.8-0.7s-1.3,0.3-1.8,0.7c-0.6,0.4-1.3,1-2.6,1c-1.3,0-2-0.5-2.6-1
			c-0.5-0.4-0.9-0.7-1.8-0.7c-0.9,0-1.3,0.3-1.8,0.7c-0.6,0.4-1.3,1-2.6,1c-1.3,0-2-0.5-2.6-1c-0.5-0.4-0.9-0.7-1.8-0.7
			c-0.4,0-0.7-0.3-0.7-0.7c0-0.4,0.3-0.7,0.7-0.7c1.3,0,2,0.5,2.6,1c0.5,0.4,0.9,0.7,1.8,0.7c0.9,0,1.3-0.3,1.8-0.7
			c0.6-0.4,1.3-1,2.6-1s2,0.5,2.6,1c0.5,0.4,0.9,0.7,1.8,0.7c0.9,0,1.3-0.3,1.8-0.7c0.6-0.4,1.3-1,2.6-1c1.3,0,2,0.5,2.6,1
			c0.5,0.4,0.9,0.7,1.8,0.7c0.9,0,1.3-0.3,1.8-0.7c0.6-0.4,1.3-1,2.6-1c0.4,0,0.7,0.3,0.7,0.7c0,0.4-0.3,0.7-0.7,0.7
			c-0.9,0-1.3,0.3-1.8,0.7C26.9,19,26.2,19.5,24.8,19.5z"/>
	</g>
	<g>
		<path d="M24.8,23.5c-1.3,0-2-0.5-2.6-1c-0.5-0.4-0.9-0.7-1.8-0.7s-1.3,0.3-1.8,0.7c-0.6,0.4-1.3,1-2.6,1c-1.3,0-2-0.5-2.6-1
			c-0.5-0.4-0.9-0.7-1.8-0.7c-0.9,0-1.3,0.3-1.8,0.7c-0.6,0.4-1.3,1-2.6,1c-1.3,0-2-0.5-2.6-1c-0.5-0.4-0.9-0.7-1.8-0.7
			c-0.4,0-0.7-0.3-0.7-0.7c0-0.4,0.3-0.7,0.7-0.7c1.3,0,2,0.5,2.6,1c0.5,0.4,0.9,0.7,1.8,0.7c0.9,0,1.3-0.3,1.8-0.7
			c0.6-0.4,1.3-1,2.6-1s2,0.5,2.6,1c0.5,0.4,0.9,0.7,1.8,0.7c0.9,0,1.3-0.3,1.8-0.7c0.6-0.4,1.3-1,2.6-1c1.3,0,2,0.5,2.6,1
			c0.5,0.4,0.9,0.7,1.8,0.7c0.9,0,1.3-0.3,1.8-0.7c0.6-0.4,1.3-1,2.6-1c0.4,0,0.7,0.3,0.7,0.7c0,0.4-0.3,0.7-0.7,0.7
			c-0.9,0-1.3,0.3-1.8,0.7C26.9,22.9,26.2,23.5,24.8,23.5z"/>
	</g>
</g>
</svg>
