<?xml version="1.0" encoding="iso-8859-1"?>
<!-- Generator: Adobe Illustrator 16.0.0, SVG Export Plug-In . SVG Version: 6.00 Build 0)  -->
<!DOCTYPE svg PUBLIC "-//W3C//DTD SVG 1.1//EN" "http://www.w3.org/Graphics/SVG/1.1/DTD/svg11.dtd">
<svg version="1.1" id="Capa_1" xmlns="http://www.w3.org/2000/svg" xmlns:xlink="http://www.w3.org/1999/xlink" x="0px" y="0px"
	 width="366.001px" height="366.001px" viewBox="0 0 366.001 366.001" style="enable-background:new 0 0 366.001 366.001;"
	 xml:space="preserve">
<g>
	<g>
		<path d="M316.198,126.574c-2.19-10.878-11.832-18.773-22.931-18.773H72.734c-11.097,0-20.74,7.895-22.93,18.772l-25.5,126.624
			c-0.794,3.947-0.556,8.057,0.696,11.885l25.5,78.023c3.152,9.645,12.086,16.123,22.233,16.123h220.534
			c10.146,0,19.08-6.479,22.232-16.123l25.502-78.023c1.252-3.828,1.492-7.938,0.697-11.885L316.198,126.574z M119.888,253.564
			H65.353L90.498,141.69h29.391L119.888,253.564L119.888,253.564z M206.393,325.013h-46.781V142.017h46.781V325.013z
			 M246.114,253.564V141.69h29.392l25.146,111.874H246.114z"/>
		<path d="M262.524,29.983c0.529-1.691,0.817-3.49,0.817-5.357c0-9.86-7.992-17.853-17.854-17.853
			c-9.859,0-17.854,7.993-17.854,17.853c0,1.867,0.288,3.666,0.819,5.357h-28.419c0.529-1.691,0.818-3.49,0.818-5.357
			c0-9.86-7.994-17.853-17.854-17.853c-9.86,0-17.854,7.993-17.854,17.853c0,1.867,0.287,3.666,0.818,5.357h-28.419
			c0.531-1.691,0.819-3.49,0.819-5.357c0-9.86-7.993-17.853-17.853-17.853c-9.86,0-17.854,7.993-17.854,17.853
			c0,1.867,0.289,3.666,0.819,5.357H0v26.781h159.965l-5.067,36.584h56.208l-5.068-36.584h159.964V29.983H262.524z"/>
	</g>
</g>
<g>
</g>
<g>
</g>
<g>
</g>
<g>
</g>
<g>
</g>
<g>
</g>
<g>
</g>
<g>
</g>
<g>
</g>
<g>
</g>
<g>
</g>
<g>
</g>
<g>
</g>
<g>
</g>
<g>
</g>
</svg>
