<?xml version="1.0" encoding="utf-8"?>
<!-- Generator: Adobe Illustrator 20.0.0, SVG Export Plug-In . SVG Version: 6.00 Build 0)  -->
<svg version="1.1" id="Capa_1" xmlns="http://www.w3.org/2000/svg" xmlns:xlink="http://www.w3.org/1999/xlink" x="0px" y="0px"
	 viewBox="0 0 1000 1000" style="enable-background:new 0 0 1000 1000;" xml:space="preserve">
<g>
	<g>
		<path d="M489.1,124.5c1.4,0,4,0.3,6.2,2.6c0.8,0.9,1.5,1.8,2,2.9c0.4,1.1,0.7,2.2,0.7,3.4v226.4c0,10.4-4.3,23.9-10.9,34.3
			c-5.8,9.1-12.6,14.8-17.9,14.8h-62.7c-6,0-11.6,2.3-15.8,6.6c-4.2,4.2-6.6,9.9-6.6,15.8l0.1,135.4c0,2.9,0.6,12.8,8.4,20.6
			c2.6,2.6,5.7,4.6,9.1,6v258c0,13-10.6,23.6-23.6,23.6h-9.3c-12.9,0-23.4-10.5-23.4-23.4V593.6c4.5-1.6,7.8-4.1,9.9-6.3
			c7.7-7.8,7.6-17.3,7.6-20.4v-0.2l1.6-129.4c0.1-3.9-0.4-12.8-7.3-20.4c-5.3-5.8-12.9-8.9-21.4-8.9h-52.5c-7.7,0-16-4.7-22.7-13
			c-7.1-8.8-11.4-20-11.4-30.1v-233c0-0.6,0.1-1,0.2-1.1c2.4-5.5,6.5-6.3,8.7-6.3c1.4,0,4,0.3,6.2,2.6c0.8,0.9,1.5,1.8,2,2.9
			c0.4,1.1,0.7,2.2,0.7,3.4v192.3c0,25.1,18.8,46,43.7,48.6c1.7,0.2,3.4,0.3,5.2,0.3c1.8,0,3.5-0.1,5.1-0.3
			c11.1-1.2,21.5-6.2,29.4-14c9.2-9.2,14.3-21.5,14.3-34.6V131.9c0-0.6,0.1-1,0.2-1.1c2.4-5.5,6.5-6.3,8.7-6.3c1.4,0,4,0.3,6.2,2.6
			c0.8,0.9,1.5,1.8,2,2.9c0.4,1.1,0.7,2.2,0.7,3.4v196.5c0,13.9,6.7,26.8,17.9,34.6c9.5,6.6,20.2,10.1,30.9,10.1
			c13.1,0,25.3-5.1,34.6-14.3c9.2-9.2,14.3-21.5,14.3-34.6V131.9c0-0.6,0.1-1,0.2-1.1C482.8,125.3,486.9,124.5,489.1,124.5
			 M489.1,104.5c-10.9,0-21.8,6.1-27.1,18.4c-1.2,2.8-1.8,5.9-1.8,9v193.8c0,8-3.2,15.2-8.5,20.4c-5.2,5.2-12.4,8.5-20.4,8.5
			c-6.3,0-13-2-19.6-6.5c-5.9-4.1-9.3-10.9-9.3-18.1V133.3c0-3.8-0.8-7.6-2.2-11.1c-1.4-3.5-3.6-6.6-6.3-9.4
			c-5.6-5.6-13-8.5-20.4-8.5c-10.9,0-21.8,6.1-27.1,18.4c-1.2,2.8-1.8,5.9-1.8,9v193.8c0,8-3.2,15.2-8.5,20.4
			c-4.6,4.6-10.6,7.6-17.4,8.3c-1,0.1-2,0.2-3,0.2s-2,0-3-0.2c-14.5-1.5-25.8-13.8-25.8-28.7V133.3c0-3.8-0.8-7.6-2.2-11.1
			c-1.4-3.5-3.6-6.6-6.3-9.4c-5.6-5.6-13-8.5-20.4-8.5c-10.9,0-21.8,6.1-27.1,18.4c-1.2,2.8-1.8,5.9-1.8,9v233
			c0,29.8,24.3,63.1,54.1,63.1h52.5c9.5,0,8.7,8.7,8.7,8.7L343,566.7c0,2.6,0.6,8.7-8.7,8.7c-8.8,0-8.7,8.7-8.7,8.7v267.2
			c0,24,19.4,43.4,43.4,43.4h9.3c24,0,43.6-19.6,43.6-43.6V584.2c0,0,0-8.7-8.7-8.7s-8.7-8.7-8.7-8.7l-0.1-135.4
			c0-1.3,1.1-2.4,2.4-2.4h62.7c27.8,0,48.7-41.3,48.7-69.1V133.3c0-3.8-0.8-7.6-2.2-11.1s-3.6-6.6-6.3-9.4
			C503.9,107.3,496.5,104.5,489.1,104.5L489.1,104.5z"/>
	</g>
	<g>
		<path d="M733.3,124v304v139.8c0,2.9,0.6,12.8,8.4,20.6c2.6,2.6,5.7,4.6,9.1,6V852c0,13.2-10.7,23.9-23.9,23.9h-8.5
			c-13.1,0-23.8-10.7-23.8-23.8V594.8c4.5-1.6,7.8-4.1,9.9-6.3c7.7-7.8,7.6-17.3,7.6-20.4v-0.2V437.7c0.2-4.2-0.3-12.8-6.7-20.2
			c-5.2-5.9-12.7-9.2-21.2-9.3c-10.2-0.1-19.3-2.1-24.9-5.3c-4.6-2.7-6.3-5.6-6.3-10.9V149c0.1-1.6,2.7-8.1,10.3-14.8
			c7.2-6.4,15.9-10.2,23.1-10.2H733.3 M743.7,104h-57.4c-27.2,0-53.4,27-53.4,45c0,27,0,224.9,0,243c0,27.1,26.3,35.9,51,36.3
			c9.1,0.1,8.2,8.3,8.2,8.7l0,0v130.8c0,2.6,0.6,8.7-8.7,8.7c-8.8,0-8.7,8.7-8.7,8.7v266.9c0,24.1,19.7,43.8,43.8,43.8h8.5
			c24.2,0,43.9-19.8,43.9-43.9V585.4c0,0,0-8.7-8.7-8.7c-8.8,0-8.7-8.7-8.7-8.7V428.1V113.6C753.3,108.3,749,104,743.7,104
			L743.7,104z"/>
	</g>
</g>
</svg>
