<?xml version="1.0" encoding="utf-8"?>
<!-- Generator: Adobe Illustrator 20.0.0, SVG Export Plug-In . SVG Version: 6.00 Build 0)  -->
<svg version="1.1" id="Capa_1" xmlns="http://www.w3.org/2000/svg" xmlns:xlink="http://www.w3.org/1999/xlink" x="0px" y="0px"
	 viewBox="0 0 1000 1000" style="enable-background:new 0 0 1000 1000;" xml:space="preserve">
<g>
	<g>
		<path d="M653.5,311v0.8C653.5,311.6,653.5,311.3,653.5,311L653.5,311z M653.5,311v0.8C653.5,311.6,653.5,311.3,653.5,311
			L653.5,311z M653.5,311v0.8C653.5,311.6,653.5,311.3,653.5,311L653.5,311z M653.5,311v0.8C653.5,311.6,653.5,311.3,653.5,311
			L653.5,311z M656.2,286v0.1V286L656.2,286z M653.5,311v0.8C653.5,311.6,653.5,311.3,653.5,311L653.5,311z M656.2,286v0.1V286
			L656.2,286z M653.5,311v0.8C653.5,311.6,653.5,311.3,653.5,311L653.5,311z M656.2,286v0.1V286L656.2,286z M653.5,311v0.8
			C653.5,311.6,653.5,311.3,653.5,311L653.5,311z M656.2,286v0.1V286L656.2,286z M656.2,286v0.1V286L656.2,286z M653.5,311v0.8
			C653.5,311.6,653.5,311.3,653.5,311L653.5,311z M656.2,286v0.1V286L656.2,286z M653.5,311v0.8C653.5,311.6,653.5,311.3,653.5,311
			L653.5,311z M656.2,286v0.1V286L656.2,286z M653.5,311v0.8C653.5,311.6,653.5,311.3,653.5,311L653.5,311z M656.2,286v0.1V286
			L656.2,286z M653.5,311v0.8C653.5,311.6,653.5,311.3,653.5,311L653.5,311z M656.2,286v0.1V286L656.2,286z M653.5,311v0.8
			C653.5,311.6,653.5,311.3,653.5,311L653.5,311z M653.5,311v0.8C653.5,311.6,653.5,311.3,653.5,311L653.5,311z M653.5,311v0.8
			C653.5,311.6,653.5,311.3,653.5,311L653.5,311z M653.5,311v0.8C653.5,311.6,653.5,311.3,653.5,311L653.5,311z"/>
		<path d="M842.5,285H769V183c0-18.2-12.5-31-30.4-31H276c-18.8,0-34,13.3-34,31v102h-84.5c-7.2,0-13,5.8-13,13s5.8,13,13,13H242
			v455h74.5v75.5c0,3.9,3.2,7,7,7h439c3.9,0,7-3.1,7.1-6.9V311h72.9c7.2,0,13-5.8,13-13S849.7,285,842.5,285z M254,183
			c0-10.9,9.9-19,22-19h462.6c11.3,0,18.4,7.3,18.4,19v102h-90.5c4.6-30.8,16.5-51,27.5-51v-10c-11,0-21.7,9.8-29.2,27.6
			c-3.9,9.3-6.7,20.3-8.3,32.3l0,0l-0.1,1.1l-0.1,0.5c0,0,0,0.2-0.1,0.5v0.1c-0.2,0.8-0.6,2.5-0.9,4.4c-0.4,2.2-0.9,4.9-1.2,7.5
			c-0.1,0.5-0.1,0.9-0.1,1.4c-0.2,2.4-0.3,7-0.4,11.6c0,0.3,0,0.6,0,0.8c-0.1,6.7-0.2,13.2-0.2,13.2l-2.3,71.3V619H254V183z
			 M254,652.9h397v21.6H254V652.9z M320.7,754H254v-45.7h397v45.1H323.5C322.5,753.4,321.5,753.6,320.7,754z M759.5,838.5h-433
			v-74.9h330c3,0,5.5-1.9,6.5-4.4V619.1l0.5-308.6v0.5h96V838.5z"/>
	</g>
	<g>
		<line x1="242" y1="298" x2="157" y2="298"/>
		<line x1="842" y1="298" x2="769.6" y2="298"/>
		<path d="M663.5,310.5v0.5l0,0V310.5z M656.3,285c0,0.3-0.1,0.7-0.1,1v0.1V286c0.1-0.3,0.1-0.5,0.1-0.5V285L656.3,285z"/>
	</g>
	<g>
		<path d="M656.5,283.9l-0.1,1.1l-0.1,0.5c0,0,0,0.2-0.1,0.5v0.1V286c0-0.3,0.1-0.7,0.1-1C656.3,284.6,656.4,284.3,656.5,283.9
			L656.5,283.9z"/>
		<polygon points="663.5,313 663.5,313 663.5,310.5 663.5,311 		"/>
	</g>
	<g>
		<path d="M653.5,311c0,0.3,0,0.6,0,0.8V311L653.5,311z"/>
		<path d="M656.5,283.9l-0.1,1.1l-0.1,0.5c0,0,0,0.2-0.1,0.5v0.1V286c0-0.3,0.1-0.7,0.1-1C656.3,284.6,656.4,284.3,656.5,283.9
			L656.5,283.9z"/>
	</g>
</g>
</svg>
